<svg width="26" height="26" viewBox="0 0 26 26" fill="none" xmlns="http://www.w3.org/2000/svg">
<g clip-path="url(#clip0_405_9951)">
<path d="M13 0.411926C19.6895 0.411926 25.1094 5.83185 25.1094 12.5213C25.1094 19.2108 19.6895 24.6307 13 24.6307C6.31055 24.6307 0.890625 19.2108 0.890625 12.5213C0.890625 5.83185 6.31055 0.411926 13 0.411926ZM11.5889 7.42365L15.2754 10.9588H6.35938C5.70996 10.9588 5.1875 11.4813 5.1875 12.1307V12.9119C5.1875 13.5613 5.70996 14.0838 6.35938 14.0838H15.2754L11.5889 17.619C11.1152 18.0731 11.1055 18.8299 11.5693 19.2938L12.1064 19.826C12.5654 20.285 13.3076 20.285 13.7617 19.826L20.2412 13.3514C20.7002 12.8924 20.7002 12.1502 20.2412 11.6961L13.7617 5.21173C13.3027 4.75275 12.5605 4.75275 12.1064 5.21173L11.5693 5.74396C11.1055 6.21271 11.1152 6.96954 11.5889 7.42365Z" fill="white"/>
</g>
<defs>
<clipPath id="clip0_405_9951">
<rect width="25" height="25" fill="white" transform="translate(0.5 0.0213013)"/>
</clipPath>
</defs>
</svg>
