<svg width="20" height="20" viewBox="0 0 20 20" fill="none" xmlns="http://www.w3.org/2000/svg">
<g clip-path="url(#clip0_484_115)">
<path d="M20 0H0V20H20V0Z" fill="#00008F"/>
<path d="M12.3934 9.87697L20 0H18.8763L11.2448 9.87697H12.3934Z" fill="#FF1721"/>
<path d="M15.2822 14.2832C15.6309 15.2582 16.3493 17.7964 16.6349 17.9983H14.7493C14.7434 17.774 14.7138 17.551 14.6605 17.3332C14.5796 17.0431 13.8974 14.849 13.8974 14.849H10.902L10.4309 15.5168C10.4309 15.5168 10.9967 17.2878 11.0316 17.3747C11.0921 17.5312 11.3632 17.9997 11.3632 17.9997H9.55526C9.55526 17.9997 9.50789 17.7279 9.49079 17.6168C9.47632 17.526 9.31974 17.0279 9.31974 17.0279C9.31974 17.0279 8.90987 17.4766 8.79868 17.6845C8.6875 17.8924 8.63618 17.9997 8.63618 17.9997H7.22237C7.22237 17.9997 7.175 17.7279 7.1579 17.6168C7.14408 17.526 6.97105 16.9878 6.97105 16.9878C6.97105 16.9878 6.575 17.4681 6.4625 17.676C6.35 17.8839 6.30263 17.9997 6.30263 17.9997H4.90329C4.90329 17.9997 5.29803 17.6233 5.43618 17.4622C5.66908 17.1885 6.53684 16.0543 6.53684 16.0543L6.18882 14.8503H3.21711C3.21711 14.8503 1.52237 17.0773 1.45526 17.1464C1.38816 17.2155 0.893421 17.9233 0.882237 18.0003H0V17.4405C0.0111842 17.4286 0.0223684 17.4174 0.0348684 17.4069C0.0625 17.3872 1.31974 15.8253 2.47566 14.2865C3.51382 12.9437 4.48816 11.6385 4.57368 11.5135C4.78092 11.2115 5.07895 10.5635 5.07895 10.5635H6.61579C6.61579 10.5635 6.66316 11.1608 6.70789 11.3056C6.74803 11.4339 7.68421 14.5056 7.70592 14.5391L8.22368 13.8773L7.33882 11.1529C7.33882 11.1529 7.13158 10.6405 7.06382 10.5635H8.85921C8.85263 10.728 8.87237 10.8931 8.91776 11.0516C8.99079 11.2766 9.37566 12.6648 9.37566 12.6648C9.37566 12.6648 10.6 11.1299 10.673 11.0201C10.7599 10.8826 10.8118 10.726 10.8237 10.5635H12.3197C12.3197 10.5635 12.0461 10.7635 11.5658 11.3707L9.82434 13.5826C9.82434 13.5826 9.9625 14.0523 10.0296 14.2865C10.048 14.3536 10.0599 14.399 10.0599 14.4036C10.0599 14.4082 10.0947 14.3628 10.1546 14.2865C10.5618 13.7701 12.4171 11.3391 12.5283 11.1312C12.6191 10.9628 12.752 10.7714 12.8303 10.5641H14.2895C14.2895 10.5641 14.323 10.9997 14.3678 11.1207L15.2829 14.2858L15.2822 14.2832ZM13.0612 11.9819C12.8467 12.4431 11.5855 13.9779 11.5855 13.9779H13.5829C13.5829 13.9779 13.1974 12.7865 13.1283 12.5181C13.0941 12.3464 13.0809 12.1707 13.0888 11.9957C13.0888 11.9714 13.0842 11.9319 13.0605 11.9826V11.9812L13.0612 11.9819ZM5.38684 11.9819C5.17237 12.4431 3.91118 13.9779 3.91118 13.9779H5.90855C5.90855 13.9779 5.52171 12.7852 5.45395 12.5168C5.41908 12.3451 5.40592 12.1694 5.41447 11.9944C5.41447 11.9714 5.40987 11.9319 5.38618 11.9826V11.9812L5.38684 11.9819ZM8.39408 16.6378L8.94408 15.8839C8.89342 15.8293 8.58355 14.8904 8.58355 14.8904L8.05197 15.5812L8.39408 16.6385V16.6378Z" fill="white"/>
</g>
<defs>
<clipPath id="clip0_484_115">
<rect width="20" height="20" fill="white"/>
</clipPath>
</defs>
</svg>
