<svg width="19" height="19" viewBox="0 0 19 19" fill="none" xmlns="http://www.w3.org/2000/svg">
<g clip-path="url(#clip0_417_2242)">
<path d="M2.1875 1.89099C1.25586 1.89099 0.5 2.64685 0.5 3.57849V15.9535C0.5 16.8851 1.25586 17.641 2.1875 17.641H16.8125C17.7441 17.641 18.5 16.8851 18.5 15.9535V3.57849C18.5 2.64685 17.7441 1.89099 16.8125 1.89099H2.1875ZM2.1875 3.01599H5.91406C6.03008 3.01599 6.125 3.11091 6.125 3.22693V3.93005C6.125 4.04607 6.03008 4.14099 5.91406 4.14099H1.83594C1.71992 4.14099 1.625 4.04607 1.625 3.93005V3.57849C1.625 3.26912 1.87812 3.01599 2.1875 3.01599ZM17.1641 6.39099H1.83594C1.71992 6.39099 1.625 6.29607 1.625 6.18005V4.91443C1.625 4.79841 1.71992 4.70349 1.83594 4.70349H6.6875L7.74922 3.11091C7.78789 3.05115 7.85469 3.01599 7.925 3.01599H16.8125C17.1219 3.01599 17.375 3.26912 17.375 3.57849V6.18005C17.375 6.29607 17.2801 6.39099 17.1641 6.39099ZM9.5 15.6722C7.17266 15.6722 5.28125 13.7808 5.28125 11.4535C5.28125 9.12615 7.17266 7.23474 9.5 7.23474C11.8273 7.23474 13.7188 9.12615 13.7188 11.4535C13.7188 13.7808 11.8273 15.6722 9.5 15.6722ZM9.5 8.35974C7.79492 8.35974 6.40625 9.74841 6.40625 11.4535C6.40625 13.1586 7.79492 14.5472 9.5 14.5472C11.2051 14.5472 12.5938 13.1586 12.5938 11.4535C12.5938 9.74841 11.2051 8.35974 9.5 8.35974ZM7.8125 12.016C7.50313 12.016 7.25 11.7629 7.25 11.4535C7.25 10.2125 8.25898 9.20349 9.5 9.20349C9.80937 9.20349 10.0625 9.45662 10.0625 9.76599C10.0625 10.0754 9.80937 10.3285 9.5 10.3285C8.88125 10.3285 8.375 10.8347 8.375 11.4535C8.375 11.7629 8.12187 12.016 7.8125 12.016Z" fill="#694FB6"/>
</g>
<defs>
<clipPath id="clip0_417_2242">
<rect width="18" height="18" fill="white" transform="translate(0.5 0.765991)"/>
</clipPath>
</defs>
</svg>
