<svg width="20" height="20" viewBox="0 0 20 20" fill="none" xmlns="http://www.w3.org/2000/svg">
<path fill-rule="evenodd" clip-rule="evenodd" d="M10 0C2.72741 0 0 2.72765 0 10.0009C0 17.2756 2.72741 20.0018 10 20.0018C17.2726 20.0018 20 17.2741 20 10.0009C20 2.72765 17.2726 0 10 0ZM10.7917 9.41723C10.7407 9.41723 10.7 9.37649 10.7 9.32557V7.24704C10.7 6.8628 10.3827 6.55278 9.99557 6.56441C9.62151 6.57609 9.33336 6.9021 9.33336 7.27616V12.7562C9.33336 13.1405 9.65062 13.4505 10.0377 13.4388C10.4118 13.4272 10.7 13.1012 10.7 12.7271V10.6763C10.7 10.6253 10.7407 10.5846 10.7917 10.5846H17.0178C17.0717 10.5846 17.1139 10.6311 17.1095 10.685C16.7777 14.2845 13.8364 16.9336 10.0159 16.9336C5.9583 16.9336 2.89033 13.9439 2.89033 10.0009C2.89033 6.05789 5.9583 3.06825 10.0159 3.06825C13.8349 3.06825 16.7777 5.71876 17.1095 9.31682C17.1154 9.37068 17.0717 9.41723 17.0178 9.41723H10.7917Z" fill="#FF5000"/>
</svg>
