<svg width="24" height="22" viewBox="0 0 24 22" fill="none" xmlns="http://www.w3.org/2000/svg">
<g clip-path="url(#clip0_405_2099)">
<path fill-rule="evenodd" clip-rule="evenodd" d="M15.0237 0.297424H22.7883C23.4561 0.297424 23.9996 0.841327 23.9996 1.50874V5.64861H15.0237V0.297424Z" fill="#31C684"/>
<path d="M23.9996 5.64862H15.0237V10.9998H23.9996V5.64862Z" fill="#21A664"/>
<path d="M23.9996 11.0002H15.0237V16.3514H23.9996V11.0002Z" fill="#0E7941"/>
<path fill-rule="evenodd" clip-rule="evenodd" d="M6.83945 0.297424H15.0237V5.64861H5.62775V1.50874C5.62775 0.840944 6.17165 0.297424 6.83906 0.297424H6.83945Z" fill="#21A262"/>
<path d="M15.0241 5.64862H5.62811V10.9998H15.0241V5.64862Z" fill="#107941"/>
<path d="M15.0241 11.0002H5.62811V16.3514H15.0241V11.0002Z" fill="#105D31"/>
<path fill-rule="evenodd" clip-rule="evenodd" d="M15.0237 21.7026H6.83943C6.17163 21.7026 5.62811 21.1587 5.62811 20.5008V16.3514H24V20.5008C24 21.159 23.4561 21.7026 22.7887 21.7026H15.0241H15.0237Z" fill="#105D2F"/>
<path fill-rule="evenodd" clip-rule="evenodd" d="M1.21132 4.79019H10.9793C11.6471 4.79019 12.1906 5.33409 12.1906 6.00151V15.903C12.1906 16.5708 11.6467 17.1143 10.9793 17.1143H1.21132C0.543519 17.1143 0 16.5704 0 15.903V6.00189C0 5.33409 0.543903 4.79058 1.21132 4.79058V4.79019Z" fill="#10864A"/>
<path fill-rule="evenodd" clip-rule="evenodd" d="M3.28143 7.68997H4.70256L6.08572 9.86482L7.46887 7.68997H8.88079L6.79187 10.9714L8.88079 14.2529H7.46887L6.08572 12.078L4.70256 14.2529H3.28143L5.37995 10.9714L3.28143 7.68997Z" fill="white"/>
</g>
<defs>
<clipPath id="clip0_405_2099">
<rect width="24" height="21.4051" fill="white" transform="translate(0 0.297424)"/>
</clipPath>
</defs>
</svg>
