<svg width="30" height="33" viewBox="0 0 30 33" fill="none" xmlns="http://www.w3.org/2000/svg">
<g clip-path="url(#clip0_403_1832)">
<path d="M15.2867 30.0452H2.35655C2.14155 30.0452 1.96731 29.8709 1.96731 29.6559V3.11275C1.96731 2.89845 2.14225 2.7235 2.35655 2.7235H16.2092V6.66514C16.2092 7.80547 17.1423 8.73924 18.2833 8.73924H22.2249V15.5047C22.2249 15.7738 22.4526 15.9859 22.7217 15.967C22.9036 15.9543 23.0863 15.9466 23.2704 15.9466C23.4194 15.9466 23.5669 15.9508 23.7145 15.9585C23.9758 15.9726 24.1929 15.7562 24.1929 15.4941V8.43641C24.1929 8.04506 24.0377 7.66987 23.7608 7.39304L17.5547 1.1883C17.2779 0.911472 16.9027 0.756195 16.512 0.756195H2.35655C1.05532 0.756195 0 1.81151 0 3.11275V29.6559C0 30.9522 1.06024 32.0125 2.35655 32.0125H16.5211C16.8528 32.0125 17.0059 31.5965 16.7488 31.3864C16.5324 31.2101 16.3237 31.0218 16.1235 30.8215C15.9134 30.6115 15.7209 30.3915 15.5382 30.166C15.4764 30.0894 15.385 30.0452 15.2867 30.0452Z" fill="white"/>
<path fill-rule="evenodd" clip-rule="evenodd" d="M22.7617 17.5563C18.7639 17.5563 15.5234 20.7967 15.5234 24.7946C15.5234 28.7924 18.7639 32.0328 22.7617 32.0328C26.7596 32.0328 30 28.7924 30 24.7946C30 20.7967 26.7596 17.5563 22.7617 17.5563ZM27.1334 25.3264C27.1334 25.5716 26.9324 25.7726 26.6872 25.7726H23.666V28.72C23.666 28.9652 23.465 29.1662 23.2198 29.1662H22.1561C21.9109 29.1662 21.7099 28.9652 21.7099 28.72V25.7726H18.8369C18.5917 25.7726 18.3908 25.5716 18.3908 25.3264V24.2627C18.3908 24.0175 18.5917 23.8165 18.8369 23.8165H21.7099V20.8691C21.7099 20.6239 21.9109 20.4229 22.1561 20.4229H23.2198C23.465 20.4229 23.666 20.6239 23.666 20.8691V23.8165H26.6872C26.9324 23.8165 27.1334 24.0175 27.1334 24.2627V25.3264Z" fill="white"/>
</g>
<defs>
<clipPath id="clip0_403_1832">
<rect width="30" height="31.2766" fill="white" transform="translate(0 0.756195)"/>
</clipPath>
</defs>
</svg>
