<svg width="19" height="19" viewBox="0 0 19 19" fill="none" xmlns="http://www.w3.org/2000/svg">
<g clip-path="url(#clip0_417_2236)">
<path d="M9.672 17.5734H1.91393C1.78493 17.5734 1.68038 17.4688 1.68038 17.3398V1.41393C1.68038 1.28535 1.78535 1.18038 1.91393 1.18038H10.2255V3.54537C10.2255 4.22957 10.7854 4.78983 11.47 4.78983H13.835V8.84908C13.835 9.01054 13.9715 9.13785 14.133 9.12647C14.2422 9.11888 14.3518 9.11424 14.4622 9.11424C14.5516 9.11424 14.6401 9.11677 14.7287 9.12141C14.8855 9.12984 15.0158 9 15.0158 8.84276V4.60813C15.0158 4.37332 14.9226 4.1482 14.7565 3.98211L11.0328 0.259263C10.8667 0.093166 10.6416 0 10.4072 0H1.91393C1.13319 0 0.5 0.633191 0.5 1.41393V17.3398C0.5 18.1176 1.13614 18.7538 1.91393 18.7538H10.4127C10.6117 18.7538 10.7036 18.5042 10.5493 18.3781C10.4194 18.2723 10.2942 18.1594 10.1741 18.0392C10.048 17.9132 9.93253 17.7812 9.82292 17.6459C9.78582 17.5999 9.73102 17.5734 9.672 17.5734Z" fill="#694FB6"/>
<path fill-rule="evenodd" clip-rule="evenodd" d="M14.1571 10.0801C11.7583 10.0801 9.81409 12.0243 9.81409 14.423C9.81409 16.8218 11.7583 18.766 14.1571 18.766C16.5558 18.766 18.5 16.8218 18.5 14.423C18.5 12.0243 16.5558 10.0801 14.1571 10.0801ZM16.78 14.7422C16.78 14.8893 16.6595 15.0099 16.5123 15.0099H14.6996V16.7783C14.6996 16.9255 14.579 17.046 14.4319 17.046H13.7937C13.6465 17.046 13.526 16.9255 13.526 16.7783V15.0099H11.8022C11.6551 15.0099 11.5345 14.8893 11.5345 14.7422V14.1039C11.5345 13.9568 11.6551 13.8362 11.8022 13.8362H13.526V12.0678C13.526 11.9206 13.6465 11.8001 13.7937 11.8001H14.4319C14.579 11.8001 14.6996 11.9206 14.6996 12.0678V13.8362H16.5123C16.6595 13.8362 16.78 13.9568 16.78 14.1039V14.7422Z" fill="#694FB6"/>
</g>
<defs>
<clipPath id="clip0_417_2236">
<rect width="18" height="18.766" fill="white" transform="translate(0.5)"/>
</clipPath>
</defs>
</svg>
