<svg width="60" height="78" viewBox="0 0 60 78" fill="none" xmlns="http://www.w3.org/2000/svg">
<g clip-path="url(#clip0_409_11278)">
<path d="M58.9269 16.4599L43.5401 1.0714C42.8281 0.357711 41.9599 0 40.9527 0H5.84493C2.6238 0 0 2.62206 0 5.84493V71.676C0 74.885 2.63595 77.5209 5.84493 77.5209H54.1551C57.3762 77.5209 60 74.8971 60 71.676V19.0473C60 18.0401 59.6406 17.1719 58.9286 16.4599H58.9269ZM55.1205 71.676C55.1205 72.2039 54.6847 72.6414 54.1551 72.6414H5.84493C5.30316 72.6414 4.87946 72.2178 4.87946 71.676V5.84493C4.87946 5.31531 5.31531 4.87946 5.84493 4.87946H40.2009V14.654C40.2009 17.4862 42.5103 19.7974 45.3443 19.7974H55.1205V71.6742V71.676Z" fill="black"/>
<path fill-rule="evenodd" clip-rule="evenodd" d="M24.8487 34.5365L29.9991 39.6869L35.1494 34.5365C35.5783 34.1076 36.2799 34.1076 36.7088 34.5365L38.5685 36.3963C38.9974 36.8252 38.9974 37.5267 38.5685 37.9556L33.4182 43.106L38.5685 48.2563C38.9974 48.6852 38.9974 49.3868 38.5685 49.8157L36.7088 51.6754C36.2799 52.1043 35.5783 52.1043 35.1494 51.6754L29.9991 46.5251L24.8487 51.6754C24.4198 52.1043 23.7183 52.1043 23.2894 51.6754L21.4296 49.8157C21.0007 49.3868 21.0007 48.6852 21.4296 48.2563L26.58 43.106L21.4296 37.9556C21.0007 37.5267 21.0007 36.8252 21.4296 36.3963L23.2894 34.5365C23.7183 34.1076 24.4198 34.1076 24.8487 34.5365ZM42.6492 30.4558C49.635 37.4416 49.635 48.7686 42.6492 55.7544C35.6634 62.7402 24.3365 62.7402 17.3507 55.7544C10.3649 48.7686 10.3649 37.4416 17.3507 30.4558C24.3365 23.47 35.6634 23.47 42.6509 30.4558H42.6492Z" fill="#EF4343"/>
</g>
<defs>
<clipPath id="clip0_409_11278">
<rect width="60" height="77.5209" fill="white"/>
</clipPath>
</defs>
</svg>
