<svg width="24" height="24" viewBox="0 0 24 24" fill="none" xmlns="http://www.w3.org/2000/svg">
<g clip-path="url(#clip0_484_59)">
<path d="M8.86117 12.157C8.55016 9.3269 11.5152 7.05672 15.4843 7.08833C19.4535 7.11994 22.9248 9.43753 23.2352 12.2637C23.5456 15.0955 20.5829 17.3623 16.6126 17.3307C12.6435 17.303 9.17217 14.9837 8.8606 12.157M23.9735 13.0341C23.6151 9.52558 19.6205 6.65145 15.0525 6.61364C10.4817 6.57695 7.0702 9.39068 7.42918 12.8981C7.7876 16.4061 11.7821 19.2819 16.3507 19.3198C20.9199 19.3559 24.3342 16.5433 23.9735 13.0341Z" fill="#F7BB82"/>
<path d="M17.0771 19.388C14.8273 21.7423 11.2143 21.9359 9.00959 19.8243C6.80432 17.7144 6.84214 14.0975 9.09369 11.7471C11.3447 9.39626 14.9577 9.20152 17.1607 11.3108C19.3648 13.4224 19.3281 17.0393 17.0766 19.388M8.73922 11.6726C6.12304 14.404 6.08127 18.609 8.64327 21.0627C11.2053 23.5146 15.4053 23.2883 18.0197 20.5552C20.6371 17.8228 20.68 13.6183 18.1163 11.1652C15.5548 8.71328 11.3554 8.93962 8.73922 11.6726Z" fill="#F4A051"/>
<path d="M8.97855 2.87168C13.6595 1.11853 18.2867 2.89256 19.3157 6.83405C20.3452 10.7784 17.3848 15.3966 12.7044 17.1492C8.02352 18.9052 3.39511 17.1294 2.3667 13.1874C1.33659 9.24647 4.29878 4.62765 8.97799 2.87168M4.6318 4.3793C-0.224084 8.2237 -1.45964 13.7953 1.86999 16.8207C5.20075 19.8483 11.8369 19.184 16.6939 15.3402C21.5503 11.4969 22.7864 5.92643 19.4551 2.89934C16.1227 -0.127193 9.48711 0.533766 4.6318 4.3793Z" fill="#ED7100"/>
</g>
<defs>
<clipPath id="clip0_484_59">
<rect width="24" height="21.7631" fill="white" transform="translate(0 1)"/>
</clipPath>
</defs>
</svg>


