<svg width="50" height="60" viewBox="0 0 50 60" fill="none" xmlns="http://www.w3.org/2000/svg">
<g clip-path="url(#clip0_304_20151)">
<g opacity="0.89">
<path d="M13.7178 44.9201C12.1492 44.9201 10.786 43.8029 10.4763 42.2634L6.42073 22.0916C6.24641 21.225 6.42014 20.3426 6.90986 19.6067C7.39958 18.8708 8.14619 18.3698 9.01278 18.1958L32.7929 13.42C33.0082 13.3767 33.228 13.355 33.4462 13.355C35.0149 13.355 36.3783 14.4722 36.6878 16.0118L40.7434 36.1836C40.9177 37.0502 40.7439 37.9325 40.2542 38.6684C39.7645 39.4043 39.0179 39.9053 38.1513 40.0794L14.3712 44.8554C14.1559 44.8988 13.9361 44.9204 13.7175 44.9204L13.7178 44.9201Z" fill="#B4C5ED"/>
<path d="M33.4463 14.7098C34.3577 14.7098 35.1726 15.3506 35.3594 16.2784L39.415 36.4502C39.6276 37.5081 38.9425 38.538 37.8846 38.7503L14.1045 43.5264C13.9748 43.5525 13.8453 43.565 13.7179 43.565C12.8064 43.565 11.9915 42.9241 11.805 41.9963L7.74915 21.8245C7.53651 20.7667 8.22165 19.7367 9.27949 19.5244L33.0596 14.7484C33.1894 14.7222 33.3189 14.7098 33.4463 14.7098ZM33.4463 11.9998C33.1386 11.9998 32.8288 12.0307 32.5259 12.0916L8.74582 16.8673C8.12958 16.9912 7.55493 17.2326 7.03759 17.5854C6.53896 17.9252 6.11635 18.3528 5.78166 18.8562C5.44666 19.3596 5.21561 19.9143 5.09474 20.5056C4.96912 21.1192 4.96852 21.7425 5.09236 22.3588L9.14793 42.5306C9.36146 43.5929 9.94235 44.553 10.7837 45.2346C11.6123 45.9058 12.6541 46.2752 13.7176 46.2752C14.0252 46.2752 14.335 46.2443 14.6379 46.1834L38.418 41.4074C39.0343 41.2836 39.6089 41.0421 40.1263 40.6893C40.6249 40.3496 41.0475 39.9219 41.3822 39.4185C41.7172 38.9151 41.9482 38.3604 42.0691 37.7691C42.1947 37.1555 42.1953 36.5322 42.0715 35.9159L38.0159 15.7441C37.8024 14.6818 37.2215 13.7217 36.3801 13.0401C35.5516 12.369 34.5098 11.9995 33.4463 11.9995V11.9998Z" fill="#B4C5ED"/>
<path d="M10.9426 37.7083L14.2804 33.2426C14.7968 32.5607 15.702 32.3029 16.5003 32.61L21.7367 34.601C22.6597 34.952 23.6991 34.5588 24.1591 33.6854L28.9364 24.6135C28.9539 24.58 28.9702 24.5458 28.9863 24.5114C29.3682 23.6988 30.2419 23.2869 31.0729 23.4407C31.3689 23.4954 31.6454 23.6269 31.8836 23.8114L37.7941 28.3875L38.6075 32.4327L39.4153 36.4503C39.628 37.5081 38.9428 38.538 37.885 38.7504L14.1049 43.5264C13.0473 43.7388 12.0177 43.0539 11.8051 41.9964L10.9429 37.7083H10.9426Z" fill="#694FB6"/>
<path d="M17.2382 23.257C17.5141 24.6291 16.5876 25.972 15.1689 26.2571C13.7502 26.5422 12.3764 25.6608 12.1005 24.289C11.8246 22.917 12.7512 21.574 14.1698 21.2889C15.5885 21.0038 16.9624 21.8853 17.2382 23.257Z" fill="#FAFAFA"/>
</g>
<path d="M39.6561 17.0215H39.6419L15.3872 17.0942C14.7588 17.096 14.1482 17.2216 13.572 17.4673C13.017 17.7039 12.5195 18.0413 12.0934 18.4702C11.6672 18.899 11.3328 19.3985 11.0997 19.9551C10.8576 20.5327 10.7359 21.1442 10.7379 21.7726L10.8039 42.348C10.8059 42.9752 10.931 43.5846 11.176 44.1596C11.4118 44.7134 11.7483 45.2103 12.1753 45.6361C12.6024 46.062 13.1004 46.3964 13.6552 46.6304C14.2307 46.8734 14.8404 46.9963 15.4674 46.9963H15.4813L39.736 46.9236C40.3644 46.9218 40.975 46.7962 41.5511 46.5505C42.1062 46.3139 42.6036 45.9765 43.0298 45.5476C43.456 45.1188 43.7904 44.6193 44.0235 44.0627C44.2656 43.4851 44.3873 42.8736 44.3852 42.2452L44.3193 21.6698C44.3172 21.0426 44.1922 20.4332 43.9472 19.8582C43.7114 19.3044 43.3749 18.8075 42.9478 18.3817C42.5208 17.9558 42.0228 17.6214 41.4683 17.3874C40.8927 17.1444 40.283 17.0215 39.6561 17.0215ZM39.6561 19.7314C40.7321 19.7314 41.6058 20.6019 41.6094 21.6784L41.6753 42.2538C41.6789 43.3328 40.8066 44.2103 39.7277 44.2136L15.473 44.2864C15.4709 44.2864 15.4691 44.2864 15.4671 44.2864C14.3911 44.2864 13.5174 43.4159 13.5138 42.3394L13.4479 21.764C13.4443 20.685 14.3166 19.8075 15.3955 19.8042L39.6502 19.7314C39.6523 19.7314 39.654 19.7314 39.6561 19.7314Z" fill="#B9C9ED"/>
<path d="M15.4682 47.5708C14.7632 47.5708 14.0783 47.4324 13.4318 47.1597C12.8088 46.8969 12.2495 46.5212 11.7699 46.0431C11.29 45.565 10.9125 45.0069 10.6476 44.3848C10.3726 43.7388 10.2322 43.0543 10.2298 42.3501L10.1638 21.7747C10.1615 21.0691 10.2984 20.3822 10.5704 19.7333C10.8324 19.1082 11.208 18.5472 11.6865 18.0658C12.1649 17.5844 12.7238 17.2054 13.3472 16.9393C13.9943 16.6634 14.68 16.5223 15.386 16.5203L39.6567 16.4475C40.3605 16.4475 41.0454 16.5859 41.6922 16.8588C42.3153 17.1217 42.8742 17.4973 43.3541 17.9755C43.834 18.4536 44.2115 19.0116 44.4764 19.6338C44.7514 20.2797 44.8921 20.9643 44.8942 21.6684L44.9602 42.2438C44.9625 42.9495 44.8256 43.6364 44.5536 44.2853C44.2917 44.9101 43.916 45.4714 43.4375 45.9528C42.9591 46.4342 42.4002 46.8132 41.7768 47.0793C41.1297 47.3552 40.4437 47.4962 39.7381 47.4983L15.4685 47.5711L15.4682 47.5708ZM39.6579 17.5959H39.6439L15.3892 17.6687C14.838 17.6705 14.3026 17.7804 13.7977 17.9957C13.3112 18.2033 12.875 18.4991 12.5011 18.8753C12.1275 19.2513 11.8341 19.6893 11.6294 20.1773C11.4171 20.6836 11.3105 21.2197 11.3123 21.7709L11.3782 42.3463C11.38 42.8963 11.4896 43.4306 11.7043 43.9345C11.911 44.4204 12.2059 44.8561 12.5807 45.2294C12.9555 45.6027 13.392 45.8961 13.8782 46.1013C14.3828 46.3142 14.9173 46.422 15.467 46.422H15.4801L39.7342 46.3493C40.2854 46.3475 40.8208 46.2376 41.3257 46.0223C41.8125 45.8147 42.2484 45.5189 42.6223 45.1427C42.9959 44.7667 43.2893 44.3286 43.494 43.8407C43.7063 43.3343 43.8129 42.7983 43.8111 42.2471L43.7452 21.6717C43.7434 21.1217 43.6338 20.5874 43.4191 20.0834C43.2124 19.5979 42.9175 19.1622 42.5427 18.7886C42.1679 18.4153 41.7314 18.1219 41.2452 17.9167C40.7413 17.704 40.207 17.5959 39.6579 17.5959ZM15.467 44.8608C14.0778 44.8608 12.9439 43.7305 12.9394 42.3412L12.8735 21.7658C12.8714 21.0905 13.1322 20.455 13.6082 19.9759C14.0843 19.4969 14.7183 19.232 15.3937 19.2299L39.6561 19.1572C41.0454 19.1572 42.1792 20.2875 42.1837 21.6767L42.2496 42.2521C42.2517 42.9275 41.9909 43.563 41.5149 44.042C41.0388 44.5211 40.4048 44.786 39.7294 44.7881L15.4748 44.8608H15.467ZM39.654 20.3059L15.3972 20.3786C15.0287 20.3798 14.683 20.5242 14.4231 20.7855C14.1633 21.0468 14.021 21.3937 14.0222 21.762L14.0881 42.3374C14.0905 43.0953 14.7091 43.7118 15.4667 43.7121H15.4712L39.7259 43.6393C40.0944 43.6382 40.4401 43.4938 40.7 43.2325C40.9598 42.9711 41.1021 42.6243 41.1009 42.256L41.035 21.6806C41.0326 20.9227 40.414 20.3059 39.6561 20.3059H39.654Z" fill="white"/>
<path d="M15.467 45.6413C13.6486 45.6413 12.1646 44.162 12.159 42.3436L12.093 21.7682C12.0901 20.8844 12.4316 20.0523 13.0547 19.4256C13.6777 18.7987 14.5075 18.4521 15.3913 18.4495L39.6561 18.3767C41.4745 18.3767 42.9585 19.856 42.9644 21.6744L43.0304 42.2498C43.0334 43.1336 42.6915 43.9657 42.0688 44.5927C41.4457 45.2196 40.6159 45.5662 39.7321 45.5688L15.4673 45.6416L15.467 45.6413Z" fill="#B9C9ED"/>
<path d="M13.4999 37.9654L17.6404 34.2321C18.2792 33.6634 19.2173 33.5861 19.9408 34.042L24.6916 37.0109C25.5288 37.5342 26.6249 37.3504 27.2459 36.5824L33.6919 28.6093C33.7156 28.5799 33.7382 28.5493 33.7608 28.5188C34.293 27.7959 35.2299 27.5613 36.0152 27.8731C36.2949 27.9842 36.5408 28.1668 36.7386 28.3937L41.6492 34.0292L41.6622 38.1555L41.6753 42.2535C41.6789 43.3324 40.8066 44.21 39.7277 44.2133L15.473 44.286C14.3944 44.2893 13.5171 43.4177 13.5138 42.339L13.4999 37.9651V37.9654Z" fill="#806DB9"/>
<path d="M22.479 25.0097C22.4835 26.4091 21.3139 27.5471 19.8671 27.5513C18.4199 27.5557 17.2432 26.4248 17.2388 25.0255C17.2343 23.6261 18.4038 22.4881 19.851 22.4839C21.2982 22.4794 22.4748 23.6103 22.4793 25.0097H22.479Z" fill="#FAFAFA"/>
</g>
<defs>
<clipPath id="clip0_304_20151">
<rect width="40" height="35.5708" fill="white" transform="translate(5 12)"/>
</clipPath>
</defs>
</svg>
