<svg width="24" height="24" viewBox="0 0 24 24" fill="none" xmlns="http://www.w3.org/2000/svg">
<g clip-path="url(#clip0_484_89)">
<path d="M23.6115 11.7732L23.4043 11.6409C22.6969 10.9349 21.7113 10.6282 20.3932 10.7059C19.2959 10.7727 18.4263 11.2075 17.7611 11.6123C17.7611 11.6028 17.7611 11.5919 17.7611 11.5823C17.7611 11.2388 17.7993 10.8667 17.8388 10.5041C17.877 10.1361 17.9165 9.7626 17.9165 9.4082C17.9165 9.05379 17.8756 8.70348 17.7516 8.41041C17.7202 8.33544 17.6507 8.29046 17.5634 8.29046C17.209 8.29864 16.5166 8.54127 16.3489 8.68848L16.2576 8.88886C16.2522 9.28143 16.1649 10.3774 16.0777 10.5109C16.0818 10.5055 16.0313 10.6432 16.0313 10.6432C15.8814 12.208 15.8787 13.5847 16.0163 14.7665C16.0327 14.8851 16.2603 15.0623 16.4348 15.1264C16.6284 15.1973 17.2309 15.0364 17.5784 14.9056C17.5744 14.9069 17.7079 14.8851 17.7079 14.8851C17.8183 14.8728 17.8824 14.7815 17.8783 14.6547C17.877 14.652 17.8865 14.3153 17.8865 14.3153C18.1373 13.2957 19.1528 12.0785 20.3537 11.8958C21.0325 11.7882 21.5696 11.9626 21.9921 12.4247C22.0494 12.5079 22.1734 13.2412 21.725 14.085C21.3924 14.7093 20.7258 15.2354 19.8494 15.5639C19.0192 15.8802 18.1073 16.0069 16.98 15.9688C16.9323 15.9388 15.925 15.2545 15.925 15.2545C15.0308 14.6275 13.9199 13.8451 12.9126 13.4634C12.7354 13.3952 12.4191 13.1322 12.2283 12.974L12.1233 12.8882C11.5427 12.422 10.4372 11.6859 9.54982 11.0943C9.54982 11.0943 9.14907 10.8258 9.07137 10.774C9.07137 10.7413 9.07137 10.6731 9.07137 10.6731C9.09727 10.6445 9.65614 10.3106 9.65614 10.3106C10.4372 9.85393 10.797 9.63038 10.8747 9.51452C10.8584 9.5336 10.9783 9.45318 10.9783 9.45318C10.9852 9.45045 12.9139 8.35725 12.9139 8.35725C14.7718 7.33629 16.8778 6.17766 17.9833 5.03266C17.9846 5.0313 18.0378 4.85682 18.0378 4.85682L18.0623 4.70143C18.1359 4.45607 18.14 4.26933 18.0787 4.05124C18.0623 3.98853 18.0065 3.91629 17.9288 3.90402C17.0646 3.81815 15.9523 4.33476 14.9381 5.2862C14.7091 5.5002 14.5169 5.60653 14.3138 5.71557L14.1584 5.80281C13.0407 6.43801 10.5231 8.00148 9.20495 8.84387C9.29219 7.42626 9.55391 5.41024 9.87696 3.72955L9.84152 3.52917C9.83743 3.52236 9.70521 3.27427 9.70521 3.27427L9.60298 3.09298L9.57299 3.0848C9.30991 2.95122 9.09454 3.00574 8.93779 3.04527L8.67471 3.14205L8.32303 3.26882C8.25351 3.28245 8.20444 3.32607 8.17854 3.39286C7.5488 4.91407 7.024 7.41672 6.89996 9.41774C5.64183 8.6176 4.47911 8.04238 3.90933 7.7643L3.89298 7.75613L3.82618 7.74113C3.62036 7.71523 3.37091 7.56393 3.13101 7.41808C3.10511 7.40308 2.65256 7.10866 2.65256 7.10866L1.92194 6.63975L1.72975 6.59613C1.41623 6.65066 0.813747 7.0555 0.633819 7.3322C0.610646 7.36901 0.601104 7.40854 0.601104 7.44943C0.601104 7.50804 0.620188 7.56666 0.633819 7.62254L0.666533 7.77112L0.70061 7.86108C1.05093 8.21958 1.93557 8.81798 2.8025 9.28415L3.8071 9.81712L5.34604 10.6568C5.34604 10.6636 5.60775 10.8653 5.60775 10.8653L5.78904 10.9689C5.78904 10.9689 5.81085 10.9812 5.82175 10.9894C5.41146 11.2634 3.02332 12.8582 3.02332 12.8582L1.55254 13.8328C1.41351 13.9269 0.83283 14.1872 0.704699 14.239C0.385735 14.3685 0.144468 14.5689 0.0449619 14.7842L0.00543213 14.8688L0.0449619 14.9246L0.158099 15.0105L0.308039 15.1087L0.470247 15.2204L0.622914 15.245C0.881902 15.2545 1.26493 15.1073 1.98056 14.7938C2.63893 14.5021 4.42458 13.4239 5.18928 12.9645L5.51506 12.7696C5.65 12.7805 5.79722 12.6674 5.9308 12.5665C6.08347 12.4438 6.41743 12.2393 6.62053 12.1494C6.62734 12.148 6.74184 12.0826 6.85225 12.0226C6.85225 12.0567 6.85089 12.1098 6.85089 12.1098C6.88497 14.4462 7.01855 16.1446 7.27481 17.4545L7.2789 17.4777L7.30344 17.5309C7.42884 17.7149 7.57197 18.2697 7.69874 18.7577L7.98907 19.7336C7.99589 19.7445 8.07086 19.825 8.07086 19.825C8.23716 19.9381 8.74423 20.1317 9.08091 20.0921L9.16542 20.0826L9.21858 19.964C9.24721 19.8181 9.25675 19.675 9.25675 19.5169C9.25675 19.3383 9.24448 19.1421 9.22813 18.9021L9.20495 18.5505C9.09727 16.9188 8.99095 14.5648 8.99095 12.9986V12.8745C9.26902 13.0477 10.4808 13.8124 10.4808 13.8124C12.5445 15.1509 15.6606 17.1724 17.5444 17.7067C17.6425 17.7367 17.7461 17.7135 17.817 17.644C17.8197 17.6399 18.1073 17.4586 18.1073 17.4586L18.1618 17.4368C18.2695 17.385 18.3418 17.2037 18.354 17.0061C19.9407 16.9257 22.1557 16.315 23.3402 14.8251C23.7982 14.2472 24.0041 13.5411 24.0041 12.9359C24.0041 12.4397 23.8664 12.0117 23.6169 11.7759" fill="#FCAF16"/>
</g>
<defs>
<clipPath id="clip0_484_89">
<rect width="24" height="17.0959" fill="white" transform="translate(0 3)"/>
</clipPath>
</defs>
</svg>
