<svg width="96" height="21" viewBox="0 0 96 21" fill="none" xmlns="http://www.w3.org/2000/svg">
<mask id="mask0_403_1859" style="mask-type:luminance" maskUnits="userSpaceOnUse" x="0" y="0" width="96" height="21">
<path d="M95.1236 0.0328369H0.876404V20.0328H95.1236V0.0328369Z" fill="white"/>
</mask>
<g mask="url(#mask0_403_1859)">
<path d="M26.7512 16.9783L27.8335 18.2535C27.9666 18.4232 28.1197 18.5691 28.2882 18.6867C28.4054 18.7585 28.5335 18.802 28.6651 18.8145V18.9098H27.2684V18.8145C27.3322 18.8214 27.3962 18.8039 27.4511 18.7647C27.4672 18.7527 27.4806 18.7363 27.4902 18.7169C27.4998 18.6975 27.5054 18.6756 27.5064 18.6531C27.5072 18.6351 27.5072 18.617 27.5064 18.599C27.5045 18.5798 27.4991 18.5612 27.4904 18.5448C27.4769 18.5194 27.4616 18.4953 27.4447 18.4728C27.4237 18.4436 27.3931 18.4068 27.3533 18.3602L26.3354 17.1705V18.292C26.3354 18.3743 26.3354 18.4409 26.34 18.4923C26.3411 18.5348 26.3465 18.5769 26.3559 18.6179C26.3621 18.6471 26.3744 18.6739 26.3916 18.6959C26.4102 18.7175 26.4315 18.7358 26.4546 18.7501C26.5149 18.7902 26.5829 18.8113 26.652 18.8113H26.7512V18.9066H25.4993V18.8113H25.603C25.6523 18.817 25.702 18.8086 25.748 18.7868C25.794 18.7649 25.8348 18.7302 25.8671 18.6856C25.9135 18.5616 25.9315 18.4252 25.9192 18.2903V16.0442C25.9192 15.9651 25.9192 15.9007 25.9164 15.8492C25.9153 15.8062 25.9098 15.7634 25.9 15.722C25.893 15.6924 25.8809 15.6649 25.8643 15.6413C25.8465 15.6192 25.8256 15.6009 25.8026 15.5871C25.7417 15.5469 25.6732 15.5259 25.6034 15.5259H25.4993V15.4306H26.7512V15.5259H26.652C26.6233 15.5257 26.5947 15.5288 26.5666 15.5351C26.5373 15.5419 26.5087 15.5528 26.4816 15.5676C26.4552 15.5813 26.4307 15.5995 26.4089 15.6218C26.388 15.6446 26.3723 15.6733 26.3633 15.7052C26.3413 15.816 26.3327 15.9299 26.3377 16.0436V17.1088C26.3934 17.0546 26.4578 16.9875 26.53 16.9084C26.6022 16.8293 26.6767 16.746 26.7525 16.6599C26.8284 16.5738 26.9033 16.4844 26.9773 16.3978C27.0513 16.3111 27.1194 16.2294 27.1797 16.1552C27.24 16.081 27.2912 16.016 27.3328 15.9608C27.3744 15.9055 27.4004 15.8698 27.4118 15.8525C27.4459 15.8007 27.4664 15.7382 27.4708 15.6727C27.4703 15.6524 27.466 15.6325 27.458 15.6145C27.4501 15.5964 27.4389 15.5808 27.4251 15.5687C27.3794 15.5333 27.3249 15.5175 27.2707 15.5238H27.203V15.4285H28.2818V15.5238C28.2232 15.5256 28.1651 15.5358 28.1086 15.5541C28.0791 15.566 28.0501 15.5798 28.0218 15.5953C27.9854 15.6156 27.9503 15.6389 27.9167 15.6651C27.8788 15.6943 27.8367 15.7295 27.7911 15.7734C27.7454 15.8173 27.6956 15.866 27.6412 15.9256L26.7512 16.9783Z" fill="#666666"/>
<path d="M29.737 16.4888C29.8698 16.487 30.0014 16.5201 30.1222 16.5857C30.2364 16.6489 30.3391 16.738 30.4246 16.8478C30.5099 16.9596 30.5769 17.0892 30.622 17.2301C30.6689 17.377 30.6927 17.5328 30.6924 17.6898C30.6926 17.8561 30.668 18.0211 30.6197 18.1772C30.5734 18.3277 30.5047 18.4671 30.4169 18.5887C30.3309 18.7078 30.2256 18.8051 30.1071 18.8747C29.9849 18.9472 29.8499 18.9843 29.7132 18.983C29.5808 18.9851 29.4499 18.9498 29.3313 18.8801C29.2182 18.8147 29.1176 18.7225 29.0357 18.6093C28.9524 18.494 28.8879 18.3614 28.8451 18.2183C28.8002 18.0719 28.7773 17.9172 28.7775 17.7613C28.7775 17.6021 28.801 17.4441 28.847 17.2945C28.8915 17.1463 28.9577 17.0084 29.0425 16.8873C29.1267 16.7694 29.2296 16.6722 29.3454 16.6014C29.4668 16.5286 29.601 16.4915 29.737 16.4931M29.6694 16.6599C29.6063 16.6595 29.5439 16.6756 29.4866 16.707C29.4247 16.742 29.3711 16.7949 29.3308 16.8608C29.2802 16.9437 29.243 17.0369 29.2212 17.1359C29.1914 17.2692 29.1776 17.4068 29.18 17.5447C29.1799 17.7055 29.1952 17.8657 29.2257 18.0223C29.2518 18.1623 29.2941 18.2973 29.3514 18.4236C29.3999 18.5311 29.4672 18.625 29.5488 18.6992C29.6231 18.7666 29.7142 18.8028 29.8078 18.8021C29.8737 18.8028 29.939 18.7867 29.9993 18.755C30.0609 18.7202 30.1137 18.6668 30.1523 18.6001C30.201 18.515 30.2354 18.4196 30.2537 18.3191C30.2806 18.1788 30.293 18.0351 30.2908 17.8913C30.2917 17.7308 30.2779 17.5706 30.2496 17.4137C30.2262 17.2771 30.1859 17.1453 30.1299 17.0227C30.0824 16.9178 30.0158 16.8268 29.9348 16.7563C29.8579 16.692 29.7658 16.6581 29.6717 16.6593" fill="#666666"/>
<path d="M31.5641 16.4888V17.0173C31.7316 16.665 31.9021 16.4888 32.0754 16.4888C32.1473 16.4881 32.2169 16.5188 32.2709 16.5749C32.2956 16.6001 32.3157 16.6311 32.3299 16.6659C32.3434 16.6997 32.3503 16.7367 32.35 16.7742C32.3511 16.8373 32.3311 16.8985 32.2942 16.9442C32.2767 16.9664 32.2555 16.984 32.2319 16.9959C32.2083 17.0077 32.1828 17.0135 32.1572 17.013C32.1284 17.0115 32.1003 17.0019 32.0754 16.9848C32.0448 16.9669 32.0151 16.9464 31.984 16.9247C31.9529 16.903 31.9273 16.8835 31.9027 16.8646C31.8862 16.8496 31.8666 16.8399 31.846 16.8364C31.8231 16.8385 31.8014 16.8491 31.7839 16.8668C31.757 16.89 31.7328 16.9175 31.7122 16.9485C31.6846 16.9886 31.6591 17.0305 31.6359 17.0741C31.6103 17.1229 31.5851 17.1765 31.5605 17.2366V18.357C31.5601 18.4206 31.5637 18.4841 31.5714 18.547C31.5766 18.5989 31.5923 18.6485 31.6171 18.6916C31.644 18.7334 31.6805 18.765 31.7222 18.7826C31.7811 18.8058 31.8429 18.8166 31.905 18.8146V18.9066H30.8952V18.8146C30.9475 18.8157 30.9997 18.8104 31.051 18.7988C31.0877 18.7911 31.1212 18.7694 31.1465 18.7371C31.1714 18.6989 31.1871 18.6534 31.1922 18.6055C31.2021 18.5301 31.2065 18.4539 31.2055 18.3776V17.4694C31.2103 17.3068 31.2052 17.1439 31.1904 16.9821C31.1872 16.9397 31.1704 16.9003 31.1435 16.8722C31.1165 16.8441 31.0814 16.8293 31.0455 16.831C30.9934 16.8328 30.942 16.8459 30.8939 16.8695L30.8719 16.7774L31.4723 16.4893L31.5641 16.4888Z" fill="#666666"/>
<path d="M32.7945 17.4434C32.7926 17.6028 32.8125 17.7616 32.8535 17.9134C32.8873 18.0416 32.9409 18.1611 33.0116 18.266C33.0728 18.359 33.1508 18.4345 33.24 18.4869C33.3252 18.5368 33.4191 18.5628 33.5141 18.5627C33.6356 18.5659 33.7546 18.5216 33.8527 18.4365C33.9656 18.3216 34.0491 18.1715 34.0939 18.0033L34.1616 18.0575C34.1449 18.1749 34.1141 18.2889 34.0702 18.3959C34.0264 18.5054 33.9685 18.6061 33.8984 18.6943C33.8282 18.7816 33.7452 18.8531 33.6535 18.9055C33.5589 18.9599 33.4548 18.9875 33.3497 18.9862C33.234 18.9871 33.1197 18.9577 33.0148 18.9001C32.91 18.8427 32.8166 18.7599 32.7406 18.6569C32.6582 18.5443 32.5945 18.4142 32.5528 18.2736C32.5053 18.1117 32.4819 17.9413 32.4838 17.7699C32.4813 17.586 32.5051 17.4029 32.5542 17.2284C32.5961 17.081 32.6619 16.9447 32.7479 16.8272C32.8281 16.7193 32.9277 16.6341 33.0394 16.5781C33.1534 16.5209 33.2761 16.4919 33.3999 16.4931C33.5042 16.492 33.6078 16.515 33.7047 16.5608C33.7957 16.6049 33.8779 16.6711 33.9459 16.7552C34.0154 16.8421 34.0695 16.9446 34.1049 17.0568C34.1448 17.1826 34.1645 17.3161 34.1629 17.4505L32.7945 17.4434ZM32.7945 17.2945H33.7124C33.7129 17.1862 33.6974 17.0787 33.6667 16.9766C33.6329 16.884 33.5766 16.8054 33.505 16.7508C33.4389 16.6979 33.361 16.6692 33.2811 16.6685C33.2221 16.6685 33.1638 16.6831 33.1098 16.7113C33.0535 16.74 33.0027 16.7818 32.9604 16.8342C32.9139 16.8914 32.8762 16.9577 32.8489 17.0303C32.8179 17.1141 32.7992 17.2037 32.7936 17.295" fill="#666666"/>
<path d="M35.5538 18.5704C35.4338 18.691 35.3056 18.7997 35.1705 18.8953C35.0927 18.9386 35.0078 18.9606 34.9219 18.9597C34.8572 18.9605 34.7929 18.9455 34.7332 18.9158C34.6766 18.8873 34.6259 18.8444 34.5847 18.7902C34.5417 18.7349 34.5082 18.6701 34.486 18.5996C34.4615 18.52 34.4494 18.4358 34.4504 18.351C34.4498 18.2885 34.4574 18.2262 34.4728 18.1664C34.488 18.1083 34.511 18.0534 34.5409 18.0039C34.5741 17.9498 34.6131 17.901 34.6569 17.8588C34.7089 17.8081 34.7644 17.7626 34.8228 17.7229C35.057 17.5735 35.3016 17.4479 35.5538 17.3476V17.2556C35.5556 17.1562 35.5473 17.057 35.5291 16.9599C35.5165 16.8919 35.4921 16.8277 35.4574 16.7715C35.4279 16.7254 35.3875 16.6907 35.3414 16.6718C35.2913 16.651 35.2386 16.6407 35.1856 16.6415C35.1433 16.6409 35.1014 16.6493 35.0617 16.6664C35.0274 16.6807 34.9955 16.7022 34.9676 16.7298C34.9421 16.7551 34.9216 16.7867 34.9073 16.8224C34.8942 16.8564 34.8873 16.8933 34.8872 16.9307L34.8918 17.0796C34.8954 17.1457 34.8772 17.2109 34.841 17.2615C34.824 17.2829 34.8032 17.2997 34.7802 17.3108C34.7572 17.3219 34.7325 17.3271 34.7076 17.326C34.683 17.3269 34.6586 17.3213 34.636 17.3097C34.6134 17.2981 34.5932 17.2807 34.577 17.2588C34.5409 17.2082 34.5224 17.1431 34.5253 17.0769C34.5261 17.0019 34.5431 16.9285 34.5747 16.8635C34.6098 16.7891 34.6577 16.7244 34.7154 16.6735C34.7842 16.6125 34.8615 16.5664 34.9439 16.5375C35.0438 16.5007 35.148 16.4824 35.2527 16.4834C35.3857 16.4792 35.518 16.5064 35.642 16.5635C35.6941 16.5886 35.7415 16.6257 35.7814 16.6728C35.8212 16.7198 35.8528 16.7758 35.8741 16.8375C35.9077 16.9848 35.9209 17.1374 35.9134 17.2897V18.0879C35.9134 18.2005 35.9134 18.2915 35.9161 18.3586C35.9189 18.4258 35.9212 18.4745 35.9239 18.4994C35.9262 18.5367 35.9387 18.572 35.9595 18.6001C35.9752 18.617 35.9955 18.6262 36.0166 18.6261C36.0306 18.6262 36.0445 18.6237 36.0578 18.6186C36.0743 18.6111 36.0897 18.6007 36.1035 18.5877C36.1246 18.5682 36.1448 18.5473 36.1638 18.5249C36.1871 18.4983 36.2168 18.4637 36.2551 18.4209V18.5644C36.0919 18.8214 35.9374 18.9498 35.7919 18.9494C35.76 18.9507 35.7283 18.9436 35.6991 18.9287C35.6699 18.9137 35.6438 18.8912 35.6228 18.8628C35.5722 18.7755 35.549 18.6699 35.5575 18.5644M35.5575 18.3976V17.5079C35.4478 17.5588 35.3583 17.6027 35.2879 17.6384C35.2358 17.6642 35.185 17.6934 35.1357 17.7261C35.0408 17.7836 34.9573 17.8644 34.8909 17.9633C34.8422 18.0417 34.8166 18.1368 34.8177 18.2341C34.8171 18.2921 34.8254 18.3497 34.8424 18.4041C34.8579 18.454 34.8808 18.5002 34.91 18.5406C34.937 18.5781 34.9703 18.6085 35.0078 18.6299C35.0444 18.6512 35.0845 18.6623 35.1252 18.6624C35.2886 18.6328 35.44 18.543 35.5579 18.4057" fill="#666666"/>
<path d="M38.7365 18.814V18.9093H37.4786V18.814H37.5823C37.6316 18.8196 37.6813 18.8111 37.7273 18.7893C37.7732 18.7674 37.8141 18.7328 37.8464 18.6884C37.8928 18.5644 37.9108 18.428 37.8985 18.2931V16.0453C37.8985 15.963 37.8985 15.8959 37.8939 15.845C37.8923 15.802 37.8869 15.7594 37.8779 15.7177C37.8721 15.6887 37.8601 15.6618 37.8432 15.6397C37.8251 15.6181 37.8043 15.5999 37.7815 15.5856C37.7206 15.5453 37.6521 15.5241 37.5823 15.5238H37.4786V15.4291H38.7365V15.5238H38.6291C38.58 15.5184 38.5306 15.527 38.485 15.549C38.4393 15.5709 38.3988 15.6056 38.3668 15.65C38.3189 15.7735 38.3004 15.9102 38.3134 16.0453V18.2931C38.3134 18.3749 38.3134 18.442 38.3179 18.4935C38.3196 18.5359 38.325 18.578 38.3339 18.6191C38.3403 18.6481 38.3525 18.6749 38.3696 18.6971C38.3882 18.7187 38.4095 18.737 38.4326 18.7512C38.4928 18.7918 38.5608 18.8131 38.63 18.813L38.7365 18.814Z" fill="#666666"/>
<path d="M39.5617 16.9864C39.6354 16.8513 39.7331 16.7369 39.8479 16.6509C39.9627 16.565 40.0918 16.5097 40.2265 16.4888C40.296 16.4881 40.3651 16.5026 40.4302 16.5316C40.4942 16.5628 40.5501 16.6134 40.5924 16.6783C40.6433 16.7591 40.68 16.8512 40.7003 16.9491C40.7289 17.0876 40.7421 17.23 40.7396 17.3725V18.3765C40.7381 18.4564 40.7427 18.5363 40.7533 18.6153C40.7588 18.6636 40.7756 18.7092 40.8017 18.7469C40.8262 18.7765 40.8584 18.7955 40.8931 18.801C40.9418 18.8097 40.991 18.8137 41.0402 18.8129V18.905H40.062V18.8129H40.1031C40.1544 18.8149 40.2057 18.808 40.2553 18.7924C40.2892 18.7809 40.3186 18.7555 40.3384 18.7209C40.3594 18.6803 40.3718 18.6342 40.3745 18.5866C40.38 18.5157 40.3824 18.4445 40.3818 18.3732V17.4153C40.391 17.2556 40.3668 17.0956 40.3115 16.9496C40.2874 16.9015 40.2524 16.8623 40.2105 16.8367C40.1685 16.811 40.1214 16.7998 40.0743 16.8045C39.9737 16.8139 39.8759 16.8485 39.7873 16.906C39.6988 16.9635 39.6216 17.0426 39.5608 17.1381V18.3781C39.5551 18.4772 39.5631 18.5767 39.5845 18.6727C39.5935 18.6965 39.6047 18.719 39.6179 18.7398C39.6311 18.7595 39.6482 18.775 39.6677 18.7848C39.6937 18.7977 39.7213 18.8057 39.7495 18.8086C39.7937 18.8148 39.8383 18.8177 39.8829 18.8173V18.9093H38.9033V18.8173H38.949C38.9921 18.8187 39.0352 18.8118 39.0765 18.7967C39.1088 18.7838 39.1367 18.7584 39.1555 18.7247C39.1769 18.6837 39.1905 18.6377 39.1953 18.5898C39.2033 18.5199 39.207 18.4493 39.2062 18.3787V17.5047C39.2108 17.3326 39.205 17.1603 39.1889 16.9891C39.1847 16.9421 39.1677 16.898 39.1404 16.8635C39.1144 16.8397 39.0819 16.8278 39.049 16.8299C38.9992 16.8323 38.9501 16.8454 38.9042 16.8684L38.8699 16.7758L39.468 16.4888H39.5594L39.5617 16.9864Z" fill="#666666"/>
<path d="M42.4831 16.4888V17.2896H42.4104C42.3893 17.1813 42.3587 17.0758 42.319 16.975C42.2899 16.9009 42.2499 16.8336 42.2007 16.7763C42.1594 16.7272 42.109 16.6902 42.0536 16.668C41.9944 16.6464 41.9327 16.636 41.8708 16.6371C41.8241 16.6367 41.7777 16.646 41.7337 16.6647C41.6955 16.6806 41.6597 16.7039 41.6277 16.7335C41.5992 16.7603 41.5756 16.7936 41.5583 16.8315C41.5423 16.8657 41.5338 16.904 41.5336 16.9431C41.5333 16.9883 41.5392 17.0333 41.551 17.0763C41.5666 17.1248 41.5915 17.1683 41.6236 17.2035C41.6716 17.2574 41.7246 17.3044 41.7817 17.3438C41.8498 17.3925 41.9421 17.4521 42.0559 17.5182C42.1495 17.5703 42.2395 17.6311 42.325 17.7001C42.3902 17.7512 42.4499 17.8116 42.5027 17.8799C42.5452 17.9336 42.5784 17.9967 42.6005 18.0656C42.6198 18.1296 42.6295 18.197 42.6293 18.2649C42.6305 18.3669 42.6109 18.4678 42.5722 18.5589C42.535 18.6448 42.4837 18.7211 42.4214 18.7831C42.3587 18.8457 42.2871 18.8943 42.2098 18.9266C42.1321 18.9615 42.0498 18.9799 41.9668 18.9808C41.9015 18.9804 41.8363 18.9744 41.7717 18.9629C41.6972 18.9495 41.6236 18.9298 41.5514 18.9039C41.5268 18.8963 41.5058 18.8893 41.4861 18.8849C41.4689 18.881 41.4515 18.879 41.434 18.879C41.4171 18.88 41.4008 18.8868 41.387 18.8985C41.3733 18.9102 41.3626 18.9264 41.3564 18.945H41.2846V18.1062H41.3596C41.3774 18.2158 41.4082 18.3219 41.4509 18.4214C41.4875 18.5054 41.5355 18.5817 41.593 18.6472C41.6454 18.7054 41.7064 18.7514 41.773 18.7831C41.8374 18.8138 41.9061 18.8296 41.9754 18.8297C42.0222 18.8306 42.0687 18.821 42.1125 18.8015C42.1518 18.7839 42.1881 18.7582 42.2199 18.7257C42.2495 18.6946 42.2735 18.6567 42.2902 18.6142C42.3069 18.5708 42.3153 18.5237 42.3149 18.4761C42.3155 18.4223 42.3081 18.3687 42.293 18.318C42.2753 18.2656 42.248 18.2187 42.213 18.1804C42.1639 18.1271 42.1101 18.0801 42.0527 18.0402C41.9846 17.992 41.8973 17.9362 41.7904 17.8728C41.701 17.8224 41.6144 17.7651 41.5313 17.7012C41.4738 17.6557 41.4218 17.6011 41.3769 17.5387C41.3412 17.4896 41.3152 17.4317 41.3006 17.3692C41.2869 17.3035 41.2803 17.236 41.281 17.1683C41.2805 17.0754 41.296 16.9832 41.3267 16.8976C41.3548 16.816 41.3969 16.7422 41.4505 16.681C41.5056 16.6188 41.5703 16.5698 41.641 16.5364C41.7183 16.4999 41.8009 16.4815 41.8841 16.4823C41.9197 16.4835 41.9552 16.4888 41.9901 16.498C42.0358 16.5083 42.0769 16.5196 42.1212 16.5315L42.2409 16.5651C42.2651 16.5729 42.2899 16.5778 42.3149 16.5797C42.332 16.5824 42.3493 16.579 42.3647 16.57C42.3845 16.5473 42.4 16.52 42.4104 16.4898L42.4831 16.4888Z" fill="#666666"/>
<path d="M44.6661 16.5581V17.9828C44.6617 18.1498 44.6668 18.3169 44.6811 18.4831C44.6863 18.5307 44.7046 18.5749 44.7332 18.6088C44.7565 18.6327 44.7865 18.6456 44.8173 18.6451C44.8699 18.6417 44.9215 18.626 44.969 18.599L44.9987 18.6895L44.4047 18.9792H44.3074V18.4815C44.1941 18.64 44.0628 18.779 43.9172 18.8947C43.8299 18.9505 43.7322 18.9796 43.633 18.9792C43.5294 18.982 43.4281 18.9426 43.3461 18.8676C43.2644 18.7926 43.2046 18.6892 43.1748 18.572C43.1383 18.4061 43.123 18.2347 43.1291 18.0635V17.0151C43.1304 16.9521 43.1249 16.8891 43.1126 16.8278C43.1043 16.7863 43.0859 16.7486 43.0596 16.7195C43.0324 16.691 42.999 16.6722 42.9632 16.6653C42.9157 16.6568 42.8678 16.6528 42.8197 16.6534H42.7942V16.5581H43.4886V18.1317C43.4864 18.2241 43.4955 18.3164 43.5156 18.4057C43.5289 18.4658 43.5537 18.5214 43.5882 18.5682C43.6162 18.6054 43.6527 18.6323 43.6933 18.6456C43.7337 18.6585 43.7754 18.6649 43.8172 18.6646C43.8505 18.664 43.8836 18.6588 43.9158 18.6488C43.9552 18.6369 43.993 18.6187 44.0282 18.5947C44.074 18.5644 44.1175 18.5296 44.1585 18.4907C44.2121 18.4405 44.2629 18.3862 44.3106 18.3283V16.9962C44.3117 16.9405 44.3071 16.8848 44.2969 16.8305C44.2901 16.7905 44.2732 16.7538 44.2485 16.7254C44.2207 16.6974 44.1871 16.6787 44.1511 16.6713C44.0987 16.6584 44.0453 16.652 43.9917 16.6523V16.557L44.6661 16.5581Z" fill="#666666"/>
<path d="M45.7248 16.4888V17.0173C45.8923 16.665 46.0627 16.4888 46.236 16.4888C46.3079 16.4881 46.3775 16.5188 46.4316 16.5749C46.4563 16.6001 46.4763 16.6311 46.4905 16.6659C46.504 16.6997 46.5109 16.7367 46.5106 16.7742C46.5118 16.8373 46.4917 16.8985 46.4549 16.9442C46.4374 16.9664 46.4162 16.984 46.3925 16.9959C46.3689 17.0077 46.3435 17.0135 46.3178 17.013C46.289 17.0115 46.261 17.0019 46.236 16.9848C46.2054 16.9669 46.1757 16.9464 46.1447 16.9247C46.1136 16.903 46.088 16.8835 46.0633 16.8646C46.0468 16.8496 46.0273 16.8399 46.0067 16.8364C45.9838 16.8385 45.962 16.8491 45.9445 16.8668C45.9176 16.89 45.8935 16.9175 45.8728 16.9485C45.8453 16.9886 45.8198 17.0305 45.7965 17.0741C45.7709 17.1229 45.7458 17.1765 45.7211 17.2366V18.357C45.7207 18.4206 45.7244 18.4841 45.7321 18.547C45.7374 18.5989 45.753 18.6484 45.7778 18.6916C45.8046 18.7334 45.8411 18.765 45.8829 18.7826C45.9417 18.8058 46.0036 18.8166 46.0656 18.8146V18.9066H45.0559V18.8146C45.1081 18.8157 45.1603 18.8104 45.2117 18.7988C45.2483 18.7911 45.2818 18.7694 45.3072 18.7371C45.332 18.6989 45.3478 18.6534 45.3529 18.6055C45.3627 18.5301 45.3672 18.4539 45.3661 18.3776V17.4694C45.3709 17.3068 45.3659 17.1439 45.351 16.9821C45.3479 16.9397 45.3311 16.9003 45.3041 16.8722C45.2772 16.8441 45.2421 16.8293 45.2062 16.831C45.1541 16.8327 45.1027 16.8458 45.0545 16.8695L45.0326 16.7774L45.6329 16.4893L45.7248 16.4888Z" fill="#666666"/>
<path d="M47.7447 18.5703C47.6247 18.691 47.4965 18.7997 47.3613 18.8952C47.2836 18.9385 47.1987 18.9605 47.1128 18.9596C47.048 18.9604 46.9838 18.9455 46.9241 18.9158C46.8674 18.8881 46.8164 18.8462 46.7747 18.7929C46.7316 18.7375 46.6981 18.6728 46.676 18.6023C46.6514 18.5227 46.6393 18.4384 46.6404 18.3537C46.6398 18.2912 46.6473 18.2289 46.6627 18.169C46.678 18.1109 46.701 18.0561 46.7308 18.0066C46.764 17.9525 46.8031 17.9037 46.8469 17.8615C46.8989 17.8107 46.9543 17.7653 47.0127 17.7256C47.247 17.5761 47.4915 17.4506 47.7438 17.3503V17.2582C47.7455 17.1589 47.7372 17.0596 47.7191 16.9626C47.7064 16.8945 47.682 16.8304 47.6474 16.7741C47.6178 16.7281 47.5774 16.6934 47.5313 16.6745C47.4813 16.6537 47.4285 16.6434 47.3755 16.6442C47.3333 16.6436 47.2914 16.652 47.2517 16.6691C47.2174 16.6834 47.1855 16.7048 47.1576 16.7324C47.1321 16.7578 47.1115 16.7894 47.0973 16.825C47.0841 16.859 47.0773 16.8959 47.0772 16.9333L47.0817 17.0822C47.0853 17.1484 47.0671 17.2136 47.031 17.2642C47.0139 17.2856 46.9932 17.3024 46.9702 17.3135C46.9472 17.3246 46.9224 17.3298 46.8976 17.3286C46.873 17.3295 46.8485 17.324 46.8259 17.3124C46.8033 17.3008 46.7832 17.2834 46.7669 17.2615C46.7308 17.2108 46.7124 17.1458 46.7153 17.0795C46.7161 17.0046 46.7331 16.9311 46.7646 16.8662C46.8002 16.7925 46.8484 16.7284 46.9063 16.6783C46.975 16.6173 47.0524 16.5713 47.1347 16.5424C47.2347 16.5055 47.3389 16.4872 47.4436 16.4882C47.5765 16.484 47.7089 16.5113 47.8329 16.5684C47.885 16.5934 47.9324 16.6305 47.9722 16.6776C48.0121 16.7246 48.0436 16.7807 48.065 16.8424C48.0985 16.9896 48.1118 17.1423 48.1043 17.2945V18.0927C48.1043 18.2053 48.1043 18.2963 48.107 18.3634C48.1097 18.4306 48.112 18.4793 48.1148 18.5042C48.1171 18.5415 48.1296 18.5769 48.1504 18.605C48.166 18.6218 48.1864 18.631 48.2075 18.631C48.2215 18.6311 48.2354 18.6285 48.2486 18.6234C48.2651 18.616 48.2805 18.6055 48.2943 18.5925C48.3155 18.573 48.3356 18.5521 48.3546 18.5297C48.3779 18.5032 48.4076 18.4685 48.446 18.4257V18.5692C48.2827 18.8263 48.1283 18.9546 47.9827 18.9542C47.9509 18.9556 47.9192 18.9485 47.89 18.9335C47.8607 18.9185 47.8347 18.896 47.8137 18.8676C47.763 18.7803 47.7399 18.6747 47.7483 18.5692M47.7483 18.4024V17.5079C47.6387 17.5588 47.5491 17.6026 47.4788 17.6384C47.4267 17.6641 47.3759 17.6934 47.3266 17.7261C47.2316 17.7835 47.1481 17.8644 47.0817 17.9633C47.0331 18.0417 47.0074 18.1367 47.0086 18.234C47.008 18.292 47.0163 18.3497 47.0333 18.4041C47.0488 18.454 47.0717 18.5002 47.1009 18.5405C47.1279 18.5781 47.1612 18.6085 47.1987 18.6299C47.2352 18.6511 47.2754 18.6622 47.3161 18.6624C47.4795 18.6328 47.6309 18.543 47.7488 18.4057" fill="#666666"/>
<path d="M49.1678 16.9864C49.2416 16.8513 49.3392 16.7369 49.454 16.6509C49.5688 16.565 49.698 16.5097 49.8326 16.4888C49.9022 16.4881 49.9713 16.5026 50.0364 16.5316C50.1004 16.5628 50.1563 16.6134 50.1986 16.6783C50.2495 16.7591 50.2861 16.8512 50.3064 16.9491C50.335 17.0876 50.3482 17.23 50.3457 17.3725V18.3765C50.3443 18.4564 50.3489 18.5363 50.3594 18.6153C50.365 18.6636 50.3817 18.7092 50.4079 18.7469C50.4324 18.7765 50.4645 18.7955 50.4992 18.801C50.5479 18.8097 50.5971 18.8137 50.6464 18.8129V18.905H49.6681V18.8129H49.7093C49.7606 18.8149 49.8118 18.808 49.8614 18.7924C49.8955 18.781 49.9251 18.7556 49.945 18.7209C49.9661 18.6803 49.9785 18.6342 49.9811 18.5866C49.9866 18.5157 49.989 18.4445 49.9884 18.3732V17.4153C49.9976 17.2556 49.9734 17.0956 49.9181 16.9496C49.894 16.9015 49.859 16.8623 49.8171 16.8367C49.7752 16.811 49.728 16.7998 49.6809 16.8045C49.5803 16.8139 49.4825 16.8485 49.394 16.906C49.3054 16.9635 49.2282 17.0426 49.1674 17.1381V18.3781C49.1617 18.4772 49.1697 18.5767 49.1911 18.6727C49.2001 18.6965 49.2113 18.719 49.2245 18.7398C49.2377 18.7595 49.2548 18.775 49.2743 18.7848C49.3004 18.7977 49.3279 18.8057 49.3561 18.8086C49.4004 18.8148 49.4449 18.8177 49.4895 18.8173V18.9093H48.5095V18.8173H48.5551C48.5983 18.8187 48.6414 18.8118 48.6826 18.7967C48.715 18.7838 48.7428 18.7584 48.7617 18.7247C48.7831 18.6837 48.7967 18.6377 48.8014 18.5898C48.8095 18.5199 48.8131 18.4493 48.8124 18.3787V17.5047C48.817 17.3326 48.8112 17.1603 48.795 16.9891C48.7909 16.9421 48.7739 16.898 48.7466 16.8635C48.7205 16.8397 48.6881 16.8278 48.6552 16.8299C48.6054 16.8323 48.5563 16.8454 48.5104 16.8684L48.4779 16.7758L49.076 16.4888H49.1674L49.1678 16.9864Z" fill="#666666"/>
<path d="M52.4914 18.0158C52.4671 18.1598 52.4255 18.299 52.368 18.429C52.3179 18.5415 52.2527 18.6437 52.1752 18.7317C52.1048 18.8114 52.0223 18.8746 51.9321 18.918C51.845 18.9596 51.7519 18.9809 51.658 18.9808C51.5471 18.9813 51.4376 18.9512 51.3382 18.8931C51.2353 18.8332 51.1441 18.7486 51.0704 18.6445C50.9904 18.5277 50.9285 18.395 50.8877 18.2525C50.8395 18.0861 50.816 17.9112 50.8182 17.7353C50.8165 17.5624 50.8423 17.3906 50.8945 17.229C50.941 17.0834 51.0105 16.9496 51.0992 16.8348C51.1842 16.7268 51.2865 16.6401 51.4003 16.5798C51.5153 16.5189 51.6399 16.4879 51.7658 16.4888C51.857 16.4884 51.9476 16.5067 52.0336 16.5429C52.1098 16.5731 52.1813 16.6182 52.2451 16.6762C52.2996 16.7265 52.3461 16.7882 52.3822 16.8581C52.4142 16.9171 52.4317 16.9856 52.4329 17.0557C52.4337 17.0849 52.4295 17.1139 52.4207 17.141C52.4118 17.1682 52.3984 17.193 52.3813 17.2139C52.3609 17.2351 52.3373 17.2513 52.3116 17.2616C52.286 17.2719 52.2589 17.2761 52.2318 17.274C52.201 17.2742 52.1703 17.2699 52.1405 17.261C52.113 17.2529 52.0875 17.2369 52.0664 17.2144C52.0438 17.1888 52.0264 17.1573 52.0157 17.1224C52.001 17.0733 51.9923 17.0221 51.9897 16.9702C51.9879 16.8833 51.9571 16.8008 51.9042 16.7406C51.8445 16.6845 51.7692 16.6567 51.6932 16.6626C51.6141 16.6604 51.5361 16.6838 51.4675 16.7303C51.402 16.777 51.3458 16.84 51.303 16.915C51.2566 16.9977 51.2224 17.0893 51.202 17.1857C51.1795 17.2936 51.1683 17.4044 51.1687 17.5155C51.169 17.6494 51.1844 17.7827 51.2143 17.9119C51.2417 18.0326 51.285 18.1473 51.3427 18.2519C51.3949 18.3477 51.464 18.429 51.5451 18.4902C51.6259 18.551 51.7199 18.5824 51.8156 18.5806C51.8741 18.5811 51.9323 18.5722 51.9888 18.5541C52.0458 18.5345 52.0994 18.5027 52.1469 18.4604C52.2035 18.4084 52.253 18.3463 52.2935 18.2763C52.348 18.1836 52.3939 18.0843 52.4306 17.9801L52.4914 18.0158Z" fill="#666666"/>
<path d="M53.1087 17.4434C53.1068 17.6028 53.1267 17.7616 53.1676 17.9134C53.2014 18.0416 53.255 18.1611 53.3257 18.266C53.3869 18.359 53.465 18.4345 53.5541 18.4869C53.6394 18.5368 53.7332 18.5628 53.8283 18.5627C53.9498 18.5659 54.0688 18.5216 54.1668 18.4365C54.2797 18.3216 54.3633 18.1715 54.4081 18.0033L54.4757 18.0575C54.4591 18.1749 54.4283 18.2889 54.3843 18.3959C54.3406 18.5054 54.2826 18.6061 54.2125 18.6943C54.1423 18.7816 54.0593 18.8531 53.9676 18.9055C53.873 18.9599 53.769 18.9875 53.6638 18.9862C53.5482 18.9871 53.4338 18.9577 53.3289 18.9001C53.2241 18.8427 53.1307 18.7599 53.0548 18.6569C52.9723 18.5443 52.9086 18.4142 52.867 18.2736C52.8194 18.1117 52.796 17.9413 52.798 17.7699C52.7955 17.586 52.8192 17.4029 52.8683 17.2284C52.9103 17.081 52.9761 16.9447 53.0621 16.8272C53.1422 16.7193 53.2418 16.6341 53.3536 16.5781C53.4676 16.5209 53.5903 16.4919 53.7141 16.4931C53.8184 16.492 53.9219 16.515 54.0188 16.5608C54.1098 16.6049 54.192 16.6711 54.2601 16.7552C54.3296 16.8421 54.3837 16.9446 54.4191 17.0568C54.4589 17.1826 54.4786 17.3161 54.4771 17.4505L53.1087 17.4434ZM53.1087 17.2945H54.0279C54.0284 17.1862 54.0129 17.0787 53.9823 16.9766C53.9484 16.884 53.8921 16.8054 53.8205 16.7508C53.7544 16.6979 53.6765 16.6692 53.5966 16.6685C53.5376 16.6685 53.4793 16.6831 53.4253 16.7113C53.3691 16.74 53.3182 16.7818 53.2759 16.8342C53.2294 16.8914 53.1917 16.9577 53.1644 17.0303C53.1334 17.1141 53.1147 17.2037 53.1091 17.295" fill="#666666"/>
<path d="M55.7896 18.9093V18.814H55.9007C55.9512 18.8193 56.002 18.8092 56.0483 18.7845C56.0945 18.7599 56.1346 18.7215 56.1648 18.6732C56.2059 18.5532 56.2216 18.423 56.2104 18.2941V16.0452C56.2251 15.905 56.2039 15.7628 56.1497 15.6369C56.1173 15.5977 56.0781 15.5672 56.0348 15.5477C55.9914 15.5281 55.9451 15.52 55.8988 15.5238H55.7878V15.429H56.9835C57.3236 15.4097 57.6636 15.4698 57.9841 15.6061C58.2168 15.7274 58.4104 15.9344 58.536 16.1963C58.6795 16.4852 58.7523 16.8158 58.7462 17.151C58.7486 17.3928 58.713 17.633 58.6411 17.8593C58.5738 18.0701 58.4673 18.2601 58.3295 18.4154C58.1811 18.5779 58.0055 18.7015 57.8141 18.7782C57.5844 18.8706 57.343 18.9151 57.1005 18.9098L55.7896 18.9093ZM56.6276 18.6575C56.7786 18.7011 56.9332 18.7252 57.0886 18.7295C57.2473 18.7312 57.4047 18.6943 57.551 18.6212C57.6914 18.5501 57.8173 18.4441 57.9201 18.3104C58.0278 18.1684 58.111 18.0028 58.165 17.823C58.2825 17.404 58.2825 16.9511 58.165 16.5321C58.1118 16.3519 58.0287 16.1862 57.9206 16.0447C57.8159 15.9109 57.6881 15.8055 57.546 15.7355C57.395 15.6624 57.2334 15.6256 57.0703 15.6272C57.0009 15.6275 56.9315 15.6338 56.8629 15.6462C56.7889 15.6591 56.7107 15.6781 56.6267 15.7003L56.6276 18.6575Z" fill="#666666"/>
<path d="M59.3891 17.4434C59.3872 17.6028 59.4071 17.7616 59.448 17.9134C59.4819 18.0416 59.5355 18.1611 59.6061 18.266C59.6673 18.359 59.7454 18.4345 59.8346 18.4869C59.9198 18.5368 60.0136 18.5628 60.1087 18.5627C60.2302 18.5659 60.3492 18.5216 60.4473 18.4365C60.5602 18.3216 60.6437 18.1715 60.6885 18.0033L60.7561 18.0575C60.7395 18.1749 60.7087 18.2889 60.6648 18.3959C60.621 18.5054 60.563 18.6061 60.493 18.6943C60.4227 18.7816 60.3398 18.8531 60.2481 18.9055C60.1534 18.9599 60.0494 18.9875 59.9442 18.9862C59.8286 18.9871 59.7142 18.9577 59.6093 18.9001C59.5046 18.8427 59.4112 18.7599 59.3352 18.6569C59.2527 18.5443 59.189 18.4142 59.1474 18.2736C59.0998 18.1117 59.0765 17.9413 59.0784 17.7699C59.0759 17.586 59.0997 17.4029 59.1488 17.2284C59.1907 17.081 59.2565 16.9447 59.3425 16.8272C59.4226 16.7193 59.5223 16.6341 59.634 16.5781C59.748 16.5209 59.8707 16.4919 59.9945 16.4931C60.0988 16.492 60.2023 16.515 60.2992 16.5608C60.3902 16.6049 60.4724 16.6711 60.5405 16.7552C60.61 16.8421 60.6641 16.9446 60.6995 17.0568C60.7394 17.1826 60.759 17.3161 60.7575 17.4505L59.3891 17.4434ZM59.3891 17.2945H60.307C60.3075 17.1862 60.292 17.0787 60.2613 16.9766C60.2275 16.884 60.1712 16.8054 60.0996 16.7508C60.0334 16.6979 59.9555 16.6692 59.8757 16.6685C59.8167 16.6685 59.7583 16.6831 59.7044 16.7113C59.6481 16.74 59.5973 16.7818 59.555 16.8342C59.5085 16.8914 59.4707 16.9577 59.4435 17.0303C59.4124 17.1141 59.3937 17.2037 59.3882 17.295" fill="#666666"/>
<path d="M60.922 16.558H61.855V16.6533H61.7947C61.7481 16.6493 61.702 16.6666 61.6658 16.7015C61.6507 16.7183 61.6387 16.7387 61.6308 16.7614C61.623 16.7841 61.6193 16.8086 61.6201 16.8331C61.6233 16.9068 61.6388 16.9789 61.6658 17.0454L62.1277 18.345L62.591 16.9977C62.6176 16.9293 62.6342 16.8561 62.6404 16.7811C62.642 16.7598 62.6378 16.7384 62.6282 16.7202C62.6186 16.702 62.6043 16.688 62.5874 16.6804C62.531 16.6601 62.4721 16.6517 62.4133 16.6555V16.5602H63.0625V16.6555C63.0237 16.6586 62.9855 16.6679 62.9488 16.6831C62.9205 16.6958 62.895 16.716 62.8743 16.7422C62.8526 16.7702 62.8343 16.8018 62.8199 16.8358C62.8039 16.8727 62.7879 16.916 62.7706 16.9658L62.0656 18.978H61.977L61.2688 16.9945C61.2509 16.9421 61.2303 16.8911 61.2071 16.8418C61.1895 16.8046 61.1666 16.7713 61.1395 16.7432C61.1133 16.7172 61.0832 16.6972 61.0508 16.6842C61.0089 16.6683 60.9657 16.6574 60.922 16.6517V16.558Z" fill="#666666"/>
<path d="M63.5748 17.4434C63.5729 17.6028 63.5928 17.7616 63.6337 17.9134C63.6675 18.0416 63.7211 18.1611 63.7918 18.266C63.853 18.359 63.9311 18.4345 64.0203 18.4869C64.1055 18.5368 64.1993 18.5628 64.2944 18.5627C64.4159 18.5659 64.5349 18.5216 64.633 18.4365C64.7458 18.3216 64.8294 18.1715 64.8742 18.0033L64.9418 18.0575C64.9252 18.1749 64.8944 18.2889 64.8504 18.3959C64.8067 18.5054 64.7487 18.6061 64.6786 18.6943C64.6084 18.7816 64.5254 18.8531 64.4337 18.9055C64.3391 18.9599 64.2351 18.9875 64.1299 18.9862C64.0143 18.9871 63.8999 18.9577 63.795 18.9001C63.6902 18.8427 63.5968 18.7599 63.5209 18.6569C63.4384 18.5443 63.3747 18.4142 63.3331 18.2736C63.2855 18.1117 63.2622 17.9413 63.2641 17.7699C63.2616 17.586 63.2854 17.4029 63.3345 17.2284C63.3764 17.081 63.4422 16.9447 63.5282 16.8272C63.6083 16.7193 63.708 16.6341 63.8197 16.5781C63.9337 16.5209 64.0564 16.4919 64.1802 16.4931C64.2845 16.492 64.388 16.515 64.4849 16.5608C64.5759 16.6049 64.6581 16.6711 64.7262 16.7552C64.7957 16.8421 64.8498 16.9446 64.8852 17.0568C64.925 17.1826 64.9447 17.3161 64.9432 17.4505L63.5748 17.4434ZM63.5748 17.2945H64.4927C64.4931 17.1862 64.4777 17.0787 64.447 16.9766C64.4132 16.884 64.3569 16.8054 64.2853 16.7508C64.2191 16.6979 64.1412 16.6692 64.0614 16.6685C64.0024 16.6685 63.944 16.6831 63.89 16.7113C63.8338 16.74 63.783 16.7818 63.7406 16.8342C63.6942 16.8914 63.6564 16.9577 63.6292 17.0303C63.5981 17.1141 63.5794 17.2037 63.5739 17.295" fill="#666666"/>
<path d="M65.8922 15.259V18.3776C65.8922 18.4523 65.8922 18.514 65.8981 18.5606C65.9013 18.599 65.9079 18.6369 65.9177 18.6738C65.9244 18.6984 65.9358 18.7208 65.9511 18.7393C65.9663 18.7557 65.9834 18.7696 66.0018 18.7804C66.0687 18.8111 66.1405 18.8235 66.212 18.8167V18.9088H65.2397V18.8167C65.2913 18.8184 65.3429 18.8124 65.3932 18.7988C65.4293 18.7897 65.4616 18.766 65.4846 18.7317C65.5076 18.6922 65.5213 18.6463 65.5244 18.5985C65.5316 18.5252 65.5348 18.4514 65.5339 18.3776V16.2419C65.5339 16.1086 65.5339 16.0014 65.5312 15.9169C65.5304 15.8614 65.526 15.806 65.518 15.7512C65.5118 15.7052 65.4945 15.6623 65.4682 15.6278C65.4443 15.6045 65.414 15.5925 65.3832 15.5942C65.334 15.597 65.2858 15.611 65.2411 15.6354L65.2032 15.546L65.7948 15.2579L65.8922 15.259Z" fill="#666666"/>
<path d="M67.4118 16.4888C67.5446 16.487 67.6761 16.5201 67.7969 16.5857C67.9112 16.6489 68.0139 16.738 68.0994 16.8478C68.1847 16.9596 68.2516 17.0892 68.2968 17.2301C68.3436 17.377 68.3675 17.5328 68.3671 17.6898C68.3674 17.8561 68.3428 18.0211 68.2945 18.1772C68.2482 18.3277 68.1795 18.4671 68.0916 18.5887C68.0057 18.7078 67.9003 18.8051 67.7818 18.8747C67.6596 18.9472 67.5247 18.9843 67.388 18.983C67.2556 18.9851 67.1247 18.9498 67.006 18.8801C66.893 18.8148 66.7925 18.7227 66.7109 18.6093C66.6271 18.4942 66.5622 18.3616 66.5194 18.2183C66.4745 18.0719 66.4516 17.9172 66.4518 17.7613C66.4518 17.6021 66.4753 17.4441 66.5213 17.2945C66.5658 17.1463 66.632 17.0084 66.7168 16.8873C66.801 16.7694 66.9039 16.6722 67.0197 16.6014C67.141 16.5286 67.2753 16.4915 67.4113 16.4931M67.3446 16.6599C67.2815 16.6598 67.2192 16.6758 67.1618 16.707C67.1001 16.7422 67.0467 16.7951 67.0065 16.8608C66.9559 16.9437 66.9187 17.0369 66.8968 17.1359C66.8671 17.2692 66.8532 17.4068 66.8557 17.5447C66.8556 17.7055 66.8709 17.8657 66.9014 18.0223C66.9275 18.1623 66.9697 18.2973 67.027 18.4236C67.0755 18.5311 67.1428 18.625 67.2244 18.6992C67.2988 18.7666 67.3899 18.8028 67.4835 18.8021C67.5494 18.8028 67.6147 18.7867 67.6749 18.755C67.7365 18.7202 67.7893 18.6668 67.828 18.6001C67.8766 18.515 67.9111 18.4196 67.9294 18.3191C67.9563 18.1788 67.9687 18.0351 67.9664 17.8913C67.9673 17.7308 67.9535 17.5706 67.9253 17.4137C67.9019 17.2771 67.8615 17.1453 67.8056 17.0227C67.7581 16.9178 67.6914 16.8268 67.6105 16.7563C67.5338 16.6922 67.4421 16.6583 67.3482 16.6593" fill="#666666"/>
<path d="M68.517 16.7915L69.1284 16.4991H69.2102V17.0482C69.2559 16.956 69.3079 16.8684 69.3655 16.7861C69.4102 16.7206 69.4622 16.6625 69.5199 16.6133C69.5684 16.5717 69.6223 16.5395 69.6794 16.518C69.733 16.4984 69.7887 16.4885 69.8448 16.4888C69.952 16.487 70.0578 16.5188 70.1514 16.5808C70.2435 16.6433 70.3231 16.7286 70.3848 16.831C70.4517 16.9431 70.5023 17.0678 70.5342 17.1998C70.5703 17.3457 70.5882 17.4971 70.5872 17.6492C70.588 17.8216 70.5664 17.9931 70.5233 18.1577C70.4842 18.3113 70.4223 18.4555 70.3405 18.5833C70.2637 18.7026 70.1666 18.8013 70.0554 18.873C69.9403 18.9462 69.8114 18.9835 69.6808 18.9813C69.6367 18.9816 69.5926 18.9791 69.5487 18.9738C69.5091 18.9689 69.4702 18.9585 69.4327 18.9429C69.3943 18.9267 69.3575 18.9057 69.323 18.8801C69.2819 18.8484 69.2435 18.8122 69.2083 18.7718V19.4887C69.2083 19.5732 69.2083 19.6393 69.2134 19.6875C69.2153 19.726 69.2216 19.7641 69.2321 19.8006C69.2389 19.824 69.2509 19.8447 69.2668 19.8607C69.2827 19.8759 69.3 19.8888 69.3184 19.8992C69.3904 19.9312 69.4674 19.9443 69.5441 19.9376V20.0324H68.5052V19.9382H68.5595C68.6139 19.9389 68.668 19.9294 68.7199 19.91C68.744 19.9009 68.766 19.8856 68.7843 19.865C68.8027 19.8445 68.8169 19.8194 68.8259 19.7914C68.8476 19.6876 68.8556 19.5803 68.8497 19.4736V17.2534C68.8504 17.1811 68.848 17.1088 68.8424 17.0368C68.8396 16.9937 68.8303 16.9515 68.8149 16.9122C68.8042 16.8855 68.785 16.8649 68.7615 16.8548C68.7333 16.8448 68.704 16.8403 68.6747 16.8413C68.6293 16.8449 68.5847 16.8571 68.5426 16.8776L68.517 16.7915ZM69.2102 17.1998V18.077C69.2059 18.2024 69.2125 18.3279 69.2298 18.4517C69.2402 18.5026 69.2581 18.5508 69.2828 18.5942C69.3087 18.6405 69.3414 18.681 69.3792 18.7138C69.4199 18.7492 69.4649 18.7769 69.5126 18.7961C69.5651 18.8173 69.6203 18.8278 69.6757 18.827C69.7545 18.8284 69.8321 18.8036 69.8996 18.7555C69.9671 18.707 70.0239 18.6402 70.0655 18.5606C70.1129 18.4692 70.1472 18.3691 70.1669 18.2644C70.1909 18.1415 70.2026 18.0157 70.2016 17.8897C70.2022 17.7521 70.1895 17.6149 70.1637 17.4808C70.1418 17.3668 70.1056 17.2573 70.0563 17.1559C70.0147 17.0701 69.9578 16.9962 69.8896 16.9393C69.8258 16.8876 69.7502 16.8604 69.673 16.8613C69.6377 16.8612 69.6026 16.8681 69.5693 16.8819C69.5323 16.8976 69.4972 16.9187 69.4646 16.9447C69.4242 16.9777 69.3858 17.0139 69.3495 17.053C69.3084 17.0958 69.2618 17.1451 69.2097 17.2019" fill="#666666"/>
<path d="M71.4653 16.9891C71.6097 16.818 71.6938 16.7184 71.7207 16.6934C71.7838 16.6306 71.8547 16.5796 71.9309 16.5424C72.0018 16.5077 72.0776 16.4893 72.1543 16.4882C72.2701 16.4848 72.3832 16.5295 72.4742 16.6144C72.5687 16.7105 72.632 16.8426 72.6533 16.988C72.7587 16.8296 72.886 16.6934 73.0298 16.5851C73.1266 16.522 73.2354 16.4887 73.3459 16.4882C73.4155 16.4873 73.4846 16.5018 73.5497 16.531C73.6148 16.5613 73.6719 16.6114 73.7156 16.6761C73.7676 16.7566 73.8054 16.8487 73.8266 16.9469C73.8565 17.0835 73.8703 17.2243 73.8677 17.3655V18.377C73.8677 18.4533 73.8677 18.5205 73.8736 18.5757C73.8753 18.6241 73.8867 18.6713 73.907 18.7133C73.9279 18.7508 73.9593 18.7785 73.9956 18.7912C74.0514 18.8097 74.1092 18.8177 74.167 18.8151V18.9077H73.1883V18.8151H73.2294C73.2898 18.8182 73.3499 18.8043 73.4049 18.7745C73.4286 18.7586 73.4492 18.7371 73.4657 18.7114C73.4821 18.6857 73.4939 18.6563 73.5004 18.625C73.5079 18.5425 73.5105 18.4594 73.5081 18.3764V17.366C73.5097 17.2725 73.5023 17.1792 73.4862 17.0877C73.4758 17.0247 73.454 16.9652 73.4222 16.9133C73.3965 16.8716 73.3609 16.8399 73.3199 16.8223C73.2744 16.8042 73.2267 16.7954 73.1787 16.7963C73.1405 16.7963 73.1025 16.8016 73.0654 16.812C73.0249 16.824 72.9859 16.8422 72.9493 16.8662C72.9035 16.8959 72.8597 16.9298 72.8182 16.9674C72.7641 17.0161 72.7126 17.0685 72.6638 17.1245L72.6684 18.3775C72.6684 18.4609 72.6684 18.527 72.6729 18.5736C72.6737 18.6104 72.6791 18.6469 72.6889 18.6819C72.6953 18.7034 72.7069 18.7222 72.7223 18.736C72.7369 18.7479 72.755 18.7616 72.7766 18.7772C72.8029 18.7929 72.8314 18.8028 72.8607 18.8064C72.904 18.8128 72.9477 18.8157 72.9914 18.8151V18.9077H71.9899V18.8151C72.0512 18.817 72.1125 18.8107 72.1726 18.7961C72.2109 18.7875 72.2451 18.7627 72.269 18.7263C72.2913 18.6863 72.3041 18.6399 72.306 18.592C72.3106 18.5378 72.3124 18.4631 72.3124 18.3754V17.366C72.3139 17.2734 72.3053 17.1809 72.2868 17.0909C72.2743 17.0266 72.2503 16.9663 72.2165 16.9138C72.1883 16.8713 72.1513 16.8381 72.1091 16.8175C72.0655 16.797 72.0189 16.787 71.972 16.7882C71.9218 16.7886 71.872 16.7994 71.8249 16.8202C71.7748 16.8414 71.7264 16.8683 71.6805 16.9003C71.6366 16.9312 71.5949 16.9664 71.5558 17.0054C71.523 17.0397 71.4925 17.077 71.4644 17.1169V18.3775C71.4638 18.4412 71.4659 18.5048 71.4708 18.5681C71.4737 18.6066 71.4803 18.6446 71.4905 18.6813C71.4968 18.7054 71.5083 18.727 71.5238 18.7441C71.5382 18.7583 71.5535 18.7711 71.5695 18.7826C71.6394 18.8102 71.7131 18.8212 71.7865 18.8151V18.9077H70.807V18.8151C70.8605 18.8167 70.9141 18.8107 70.9664 18.7972C71.0023 18.7885 71.0346 18.7654 71.0578 18.7317C71.0814 18.6925 71.0956 18.6465 71.0989 18.5985C71.1061 18.525 71.1093 18.451 71.1085 18.377V17.4781C71.1085 17.3259 71.1085 17.2073 71.1021 17.1207C71.1005 17.0549 71.0925 16.9895 71.0784 16.9258C71.0759 16.9093 71.0706 16.8935 71.0628 16.8796C71.0549 16.8657 71.0446 16.854 71.0327 16.8451C71.0078 16.8337 70.9812 16.8284 70.9545 16.8294C70.9047 16.8317 70.8556 16.8448 70.8097 16.8678L70.7727 16.7758L71.3708 16.4888H71.4621L71.4653 16.9891Z" fill="#666666"/>
<path d="M74.6595 17.4434C74.6576 17.6028 74.6775 17.7616 74.7185 17.9134C74.7523 18.0416 74.8059 18.1611 74.8766 18.266C74.9378 18.359 75.0158 18.4345 75.105 18.4869C75.1902 18.5368 75.2841 18.5628 75.3791 18.5627C75.5006 18.5659 75.6196 18.5216 75.7177 18.4365C75.8306 18.3216 75.9141 18.1715 75.9589 18.0033L76.0266 18.0575C76.0099 18.1749 75.9791 18.2889 75.9352 18.3959C75.8914 18.5054 75.8335 18.6061 75.7634 18.6943C75.6932 18.7816 75.6102 18.8531 75.5185 18.9055C75.4239 18.9599 75.3198 18.9875 75.2147 18.9862C75.099 18.9871 74.9847 18.9577 74.8798 18.9001C74.775 18.8427 74.6816 18.7599 74.6056 18.6569C74.5232 18.5443 74.4595 18.4142 74.4178 18.2736C74.3703 18.1117 74.3469 17.9413 74.3488 17.7699C74.3463 17.586 74.3701 17.4029 74.4192 17.2284C74.4611 17.081 74.5269 16.9447 74.6129 16.8272C74.6931 16.7193 74.7927 16.6341 74.9044 16.5781C75.0184 16.5209 75.1411 16.4919 75.2649 16.4931C75.3692 16.492 75.4728 16.515 75.5697 16.5608C75.6607 16.6049 75.7429 16.6711 75.8109 16.7552C75.8804 16.8421 75.9345 16.9446 75.9699 17.0568C76.0098 17.1826 76.0295 17.3161 76.0279 17.4505L74.6595 17.4434ZM74.6595 17.2945H75.5774C75.5779 17.1862 75.5624 17.0787 75.5317 16.9766C75.4979 16.884 75.4416 16.8054 75.37 16.7508C75.3039 16.6979 75.226 16.6692 75.1461 16.6685C75.0871 16.6685 75.0288 16.6831 74.9748 16.7113C74.9185 16.74 74.8677 16.7818 74.8254 16.8342C74.7789 16.8914 74.7412 16.9577 74.7139 17.0303C74.6829 17.1141 74.6642 17.2037 74.6586 17.295" fill="#666666"/>
<path d="M76.8732 16.9864C76.9469 16.8513 77.0446 16.7369 77.1594 16.6509C77.2741 16.565 77.4033 16.5097 77.5379 16.4888C77.6075 16.4881 77.6766 16.5026 77.7417 16.5316C77.8057 16.5628 77.8616 16.6134 77.9039 16.6783C77.9548 16.7591 77.9915 16.8512 78.0117 16.9491C78.0404 17.0876 78.0536 17.23 78.051 17.3725V18.3765C78.0496 18.4564 78.0542 18.5363 78.0647 18.6153C78.0703 18.6636 78.0871 18.7092 78.1132 18.7469C78.1377 18.7765 78.1699 18.7955 78.2046 18.801C78.2532 18.8097 78.3024 18.8137 78.3517 18.8129V18.905H77.3707V18.8129H77.4118C77.4631 18.8149 77.5144 18.808 77.564 18.7924C77.5979 18.7809 77.6274 18.7555 77.6471 18.7209C77.6682 18.6803 77.6806 18.6342 77.6832 18.5866C77.6887 18.5157 77.6912 18.4445 77.6906 18.3732V17.4153C77.6997 17.2556 77.6756 17.0956 77.6202 16.9496C77.5962 16.9015 77.5612 16.8623 77.5192 16.8367C77.4773 16.811 77.4301 16.7998 77.3831 16.8045C77.2824 16.8139 77.1846 16.8485 77.0961 16.906C77.0076 16.9635 76.9303 17.0426 76.8695 17.1381V18.3781C76.8638 18.4772 76.8718 18.5767 76.8933 18.6727C76.9023 18.6965 76.9135 18.719 76.9266 18.7398C76.9399 18.7596 76.9572 18.775 76.9769 18.7848C77.0029 18.7977 77.0305 18.8057 77.0587 18.8086C77.1029 18.8148 77.1475 18.8177 77.1921 18.8173V18.9093H76.2111V18.8173H76.2568C76.3 18.8187 76.343 18.8118 76.3843 18.7967C76.4167 18.7838 76.4445 18.7584 76.4633 18.7247C76.4848 18.6837 76.4983 18.6377 76.5031 18.5898C76.5111 18.5199 76.5148 18.4493 76.514 18.3787V17.5047C76.5186 17.3326 76.5128 17.1603 76.4967 16.9891C76.4925 16.9421 76.4755 16.898 76.4482 16.8635C76.4222 16.8397 76.3897 16.8278 76.3569 16.8299C76.307 16.8323 76.258 16.8454 76.212 16.8684L76.1796 16.7758L76.7777 16.4888H76.869L76.8732 16.9864Z" fill="#666666"/>
<path d="M79.0877 15.7859V16.5586H79.551V16.7384H79.0877V18.2627C79.0866 18.3271 79.0917 18.3914 79.1028 18.4544C79.1101 18.4967 79.124 18.5369 79.1439 18.573C79.1589 18.6003 79.1804 18.6216 79.2056 18.6342C79.2309 18.6455 79.2577 18.651 79.2847 18.6505C79.3339 18.6491 79.3816 18.6302 79.4217 18.5963C79.4687 18.558 79.5048 18.5038 79.5255 18.4409H79.6104C79.587 18.5189 79.5554 18.5932 79.5163 18.6618C79.4828 18.721 79.4423 18.7742 79.3961 18.8199C79.3551 18.8601 79.3088 18.8921 79.2591 18.9147C79.212 18.9357 79.1622 18.9465 79.112 18.9467C79.0778 18.9467 79.0439 18.9412 79.011 18.9304C78.9775 18.9197 78.9455 18.9033 78.916 18.8817C78.8859 18.8604 78.8585 18.8341 78.8346 18.8037C78.8095 18.7722 78.7895 18.7355 78.7757 18.6954C78.7398 18.5738 78.7243 18.445 78.73 18.3163V16.7379H78.4161V16.6528C78.5064 16.6074 78.5889 16.5428 78.6596 16.4622C78.7457 16.3683 78.8204 16.2608 78.8817 16.1427C78.8977 16.1103 78.9178 16.0648 78.9411 16.0052C78.9644 15.9456 78.9918 15.8731 79.0201 15.7886L79.0877 15.7859Z" fill="#666666"/>
<path d="M82.0831 18.814V18.9093H80.8253V18.814H80.929C80.9782 18.8196 81.0277 18.8111 81.0735 18.7892C81.1193 18.7674 81.16 18.7328 81.1922 18.6884C81.239 18.5645 81.257 18.428 81.2443 18.2931V16.0453C81.2443 15.963 81.2443 15.8959 81.2406 15.845C81.2388 15.802 81.2333 15.7593 81.2242 15.7177C81.2182 15.6888 81.2064 15.6621 81.1899 15.6397C81.1715 15.6185 81.1507 15.6003 81.1282 15.5856C81.0673 15.5453 80.9988 15.5241 80.929 15.5238H80.8253V15.4291H82.0831V15.5238H81.9767C81.9277 15.5183 81.8783 15.5269 81.8327 15.5489C81.7872 15.5709 81.7467 15.6056 81.7149 15.65C81.6666 15.7734 81.6481 15.9102 81.6614 16.0453V18.2931C81.6614 18.3749 81.6614 18.442 81.6651 18.4935C81.6669 18.5359 81.6724 18.578 81.6815 18.6191C81.6876 18.648 81.6995 18.6748 81.7163 18.6971C81.7352 18.7183 81.7564 18.7365 81.7793 18.7512C81.8395 18.7917 81.9075 18.813 81.9767 18.813L82.0831 18.814Z" fill="#666666"/>
<path d="M82.9088 16.9864C82.9825 16.8513 83.0802 16.7369 83.195 16.6509C83.3097 16.565 83.4389 16.5097 83.5735 16.4888C83.6431 16.4881 83.7122 16.5026 83.7773 16.5316C83.8413 16.5628 83.8972 16.6134 83.9395 16.6783C83.9904 16.7591 84.027 16.8512 84.0473 16.9491C84.0759 17.0876 84.0892 17.23 84.0866 17.3725V18.3765C84.0852 18.4564 84.0898 18.5363 84.1003 18.6153C84.1059 18.6636 84.1227 18.7092 84.1488 18.7469C84.1733 18.7765 84.2055 18.7955 84.2401 18.801C84.2888 18.8097 84.338 18.8137 84.3873 18.8129V18.905H83.4063V18.8129H83.4474C83.4987 18.8149 83.55 18.808 83.5996 18.7924C83.6335 18.7809 83.663 18.7555 83.6827 18.7209C83.7038 18.6803 83.7162 18.6342 83.7188 18.5866C83.7243 18.5157 83.7268 18.4445 83.7261 18.3732V17.4153C83.7353 17.2556 83.7111 17.0956 83.6558 16.9496C83.6317 16.9015 83.5967 16.8623 83.5548 16.8367C83.5129 16.811 83.4657 16.7998 83.4187 16.8045C83.318 16.8139 83.2202 16.8485 83.1317 16.906C83.0432 16.9635 82.9659 17.0426 82.9051 17.1381V18.3781C82.8994 18.4772 82.9074 18.5767 82.9289 18.6727C82.9379 18.6965 82.949 18.719 82.9622 18.7398C82.9754 18.7595 82.9925 18.775 83.012 18.7848C83.0381 18.7977 83.0657 18.8057 83.0938 18.8086C83.1381 18.8148 83.1826 18.8177 83.2272 18.8173V18.9093H82.2463V18.8173H82.2919C82.3351 18.8187 82.3782 18.8118 82.4194 18.7967C82.4518 18.7838 82.4796 18.7584 82.4985 18.7247C82.5199 18.6837 82.5335 18.6377 82.5382 18.5898C82.5463 18.5199 82.5499 18.4493 82.5492 18.3787V17.5047C82.5538 17.3326 82.548 17.1603 82.5318 16.9891C82.5277 16.9421 82.5107 16.898 82.4834 16.8635C82.4573 16.8397 82.4249 16.8278 82.392 16.8299C82.3422 16.8323 82.2931 16.8454 82.2472 16.8684L82.2147 16.7758L82.8128 16.4888H82.9042L82.9088 16.9864Z" fill="#666666"/>
<path d="M85.8292 16.4888V17.2896H85.7575C85.7364 17.1813 85.7058 17.0758 85.6661 16.975C85.637 16.9009 85.597 16.8336 85.5478 16.7763C85.5064 16.7272 85.4561 16.6902 85.4007 16.668C85.3415 16.6464 85.2798 16.636 85.2179 16.6371C85.1712 16.6367 85.1248 16.646 85.0808 16.6647C85.0426 16.6806 85.0068 16.7039 84.9748 16.7335C84.9463 16.7603 84.9227 16.7936 84.9054 16.8315C84.8894 16.8657 84.8809 16.904 84.8807 16.9431C84.8804 16.9883 84.8863 17.0333 84.8981 17.0763C84.9137 17.1248 84.9385 17.1684 84.9707 17.2035C85.0187 17.2574 85.0717 17.3044 85.1288 17.3438C85.1969 17.3925 85.2892 17.4521 85.403 17.5182C85.4966 17.5703 85.5865 17.6311 85.6721 17.7001C85.7373 17.7512 85.797 17.8116 85.8498 17.8799C85.8923 17.9336 85.9255 17.9967 85.9476 18.0656C85.9669 18.1296 85.9766 18.197 85.9764 18.2649C85.9776 18.3669 85.958 18.4678 85.9192 18.5589C85.8821 18.6448 85.8308 18.7211 85.7685 18.7831C85.7058 18.8457 85.6342 18.8943 85.5569 18.9266C85.4792 18.9615 85.3969 18.9799 85.3139 18.9808C85.2485 18.9804 85.1833 18.9744 85.1188 18.9629C85.0443 18.9495 84.9707 18.9298 84.8985 18.9039C84.8739 18.8963 84.8528 18.8893 84.8332 18.8849C84.816 18.881 84.7986 18.879 84.7811 18.879C84.7642 18.88 84.7479 18.8868 84.7341 18.8985C84.7204 18.9102 84.7097 18.9264 84.7034 18.945H84.6317V18.1062H84.7034C84.7213 18.2158 84.7521 18.3219 84.7948 18.4214C84.8313 18.5054 84.8794 18.5817 84.9369 18.6472C84.9893 18.7054 85.0503 18.7514 85.1169 18.7831C85.1813 18.8138 85.25 18.8296 85.3193 18.8297C85.3661 18.8306 85.4126 18.821 85.4564 18.8015C85.4957 18.7839 85.532 18.7582 85.5638 18.7257C85.5934 18.6946 85.6174 18.6567 85.6341 18.6142C85.6507 18.5708 85.6591 18.5237 85.6588 18.4761C85.6594 18.4223 85.652 18.3687 85.6369 18.318C85.6192 18.2656 85.5919 18.2187 85.5569 18.1804C85.5078 18.1271 85.454 18.0801 85.3966 18.0402C85.3285 17.992 85.2412 17.9362 85.1343 17.8728C85.0449 17.8224 84.9583 17.7651 84.8752 17.7012C84.8177 17.6557 84.7657 17.6011 84.7208 17.5387C84.6851 17.4896 84.6591 17.4317 84.6445 17.3692C84.6308 17.3035 84.6242 17.236 84.6249 17.1683C84.6244 17.0754 84.6399 16.9832 84.6705 16.8976C84.6987 16.816 84.7408 16.7422 84.7944 16.681C84.8495 16.6188 84.9142 16.5698 84.9849 16.5364C85.0622 16.4999 85.1447 16.4815 85.228 16.4823C85.2636 16.4835 85.2991 16.4888 85.334 16.498C85.3796 16.5083 85.4208 16.5196 85.4651 16.5315L85.5848 16.5651C85.609 16.5729 85.6338 16.5778 85.6588 16.5797C85.6781 16.5813 85.6972 16.5752 85.7132 16.5624C85.7327 16.5395 85.7482 16.5123 85.7589 16.4823L85.8292 16.4888Z" fill="#666666"/>
<path d="M86.8491 15.7859V16.5586H87.3124V16.7384H86.8491V18.2627C86.8479 18.3271 86.853 18.3914 86.8641 18.4544C86.8714 18.4967 86.8853 18.5369 86.9053 18.573C86.9202 18.6003 86.9417 18.6216 86.9669 18.6342C86.9922 18.6455 87.019 18.651 87.046 18.6505C87.0952 18.6491 87.143 18.6302 87.1831 18.5963C87.23 18.558 87.2661 18.5039 87.2868 18.4409H87.3718C87.3484 18.5189 87.3167 18.5932 87.2776 18.6618C87.2441 18.721 87.2036 18.7742 87.1575 18.8199C87.1164 18.8601 87.0701 18.8921 87.0204 18.9147C86.9734 18.9357 86.9235 18.9465 86.8733 18.9467C86.8392 18.9467 86.8052 18.9412 86.7723 18.9304C86.7388 18.9197 86.7068 18.9033 86.6773 18.8817C86.6472 18.8604 86.6198 18.8341 86.5959 18.8037C86.5708 18.7722 86.5508 18.7355 86.537 18.6954C86.5011 18.5738 86.4856 18.445 86.4913 18.3163V16.7379H86.1774V16.6528C86.2677 16.6074 86.3502 16.5428 86.421 16.4622C86.507 16.3683 86.5817 16.2608 86.643 16.1427C86.659 16.1103 86.6791 16.0648 86.7024 16.0052C86.7257 15.9456 86.7531 15.8731 86.7814 15.7886L86.8491 15.7859Z" fill="#666666"/>
<path d="M88.1896 16.4888V18.3776C88.189 18.4387 88.1911 18.4997 88.1959 18.5606C88.1989 18.5994 88.2055 18.6377 88.2156 18.6748C88.2217 18.6998 88.2332 18.7223 88.2489 18.7404C88.263 18.7557 88.2783 18.7693 88.2946 18.781C88.3566 18.8102 88.4232 18.8226 88.4897 18.8173V18.9093H87.5261V18.8173C87.5663 18.8175 87.6064 18.8149 87.6463 18.8097C87.6725 18.806 87.6979 18.7972 87.7217 18.7837C87.7397 18.773 87.7554 18.7574 87.7674 18.7382C87.7796 18.7176 87.79 18.6957 87.7984 18.6727C87.8239 18.5776 87.8343 18.4777 87.8291 18.3781V17.4716C87.8291 17.3222 87.8291 17.2052 87.8227 17.1191C87.821 17.0543 87.8135 16.9898 87.8003 16.9269C87.7978 16.9104 87.7924 16.8947 87.7846 16.8808C87.7767 16.8669 87.7665 16.8551 87.7546 16.8462C87.7295 16.8343 87.7026 16.8287 87.6755 16.8299C87.625 16.8324 87.5752 16.8454 87.5284 16.8684L87.4978 16.7758L88.0954 16.4888H88.1896ZM88.0095 15.259C88.0389 15.2588 88.068 15.2658 88.095 15.2796C88.1208 15.2923 88.1444 15.3106 88.1644 15.3337C88.1837 15.3577 88.1991 15.3856 88.2101 15.4161C88.2216 15.4482 88.2275 15.4827 88.2275 15.5176C88.2275 15.5525 88.2216 15.587 88.2101 15.6191C88.1988 15.6497 88.1834 15.6779 88.1644 15.7025C88.1447 15.7261 88.1211 15.7446 88.095 15.7567C88.0547 15.7769 88.0104 15.7826 87.9674 15.7729C87.9245 15.7633 87.8849 15.7388 87.8537 15.7025C87.8344 15.6782 87.8189 15.65 87.808 15.6191C87.7965 15.587 87.7906 15.5525 87.7906 15.5176C87.7906 15.4827 87.7965 15.4482 87.808 15.4161C87.819 15.3856 87.8345 15.3577 87.8537 15.3337C87.8958 15.2852 87.9522 15.258 88.0109 15.2579" fill="#666666"/>
<path d="M89.3135 15.7859V16.5586H89.7768V16.7384H89.3135V18.2627C89.3123 18.3271 89.3174 18.3914 89.3286 18.4544C89.3358 18.4967 89.3497 18.5369 89.3697 18.573C89.3846 18.6003 89.4061 18.6216 89.4314 18.6342C89.4566 18.6455 89.4834 18.651 89.5104 18.6505C89.5596 18.6491 89.6074 18.6302 89.6475 18.5963C89.6944 18.558 89.7305 18.5038 89.7512 18.4409H89.8362C89.8128 18.5189 89.7811 18.5932 89.742 18.6618C89.7085 18.721 89.668 18.7742 89.6219 18.8199C89.5808 18.8601 89.5345 18.8921 89.4848 18.9147C89.4378 18.9357 89.3879 18.9465 89.3377 18.9467C89.3036 18.9467 89.2696 18.9412 89.2367 18.9304C89.2032 18.9197 89.1712 18.9033 89.1417 18.8817C89.1116 18.8604 89.0842 18.8341 89.0604 18.8037C89.0352 18.7722 89.0153 18.7355 89.0014 18.6954C88.9656 18.5738 88.95 18.445 88.9557 18.3163V16.7379H88.6418V16.6528C88.7321 16.6074 88.8146 16.5428 88.8854 16.4622C88.9714 16.3683 89.0461 16.2608 89.1074 16.1427C89.1234 16.1103 89.1435 16.0648 89.1668 16.0052C89.1901 15.9456 89.2175 15.8731 89.2459 15.7886L89.3135 15.7859Z" fill="#666666"/>
<path d="M91.7085 16.558V17.9827C91.7042 18.1497 91.7092 18.3169 91.7236 18.4831C91.7294 18.5306 91.748 18.5747 91.7766 18.6087C91.7996 18.6325 91.8292 18.6454 91.8598 18.645C91.9123 18.6425 91.9638 18.6276 92.0114 18.6011L92.0421 18.6916L91.4481 18.9813H91.3503V18.4836C91.2373 18.642 91.1063 18.7811 90.961 18.8968C90.8738 18.9527 90.776 18.9817 90.6769 18.9813C90.573 18.984 90.4715 18.9446 90.389 18.8697C90.3076 18.7944 90.2478 18.6911 90.2177 18.5741C90.1817 18.4081 90.1663 18.2368 90.172 18.0656V17.0151C90.1733 16.952 90.1678 16.8891 90.1555 16.8277C90.1472 16.7862 90.1288 16.7485 90.1025 16.7194C90.0753 16.6911 90.0419 16.6723 90.0061 16.6653C89.9584 16.6567 89.9101 16.6527 89.8618 16.6533H89.8362V16.558H90.5306V18.1317C90.5285 18.2241 90.5378 18.3164 90.5581 18.4057C90.5713 18.4658 90.5962 18.5214 90.6307 18.5681C90.6587 18.6054 90.6952 18.6323 90.7358 18.6456C90.7762 18.6584 90.8178 18.6648 90.8596 18.6645C90.8929 18.664 90.9261 18.6587 90.9583 18.6488C90.9976 18.6368 91.0354 18.6185 91.0707 18.5947C91.1159 18.5648 91.159 18.5305 91.1995 18.4923C91.253 18.4421 91.3037 18.3878 91.3512 18.3299V16.9977C91.3521 16.9421 91.3476 16.8865 91.338 16.832C91.3312 16.792 91.3143 16.7554 91.2896 16.727C91.2617 16.6991 91.2281 16.6805 91.1922 16.6728C91.1398 16.66 91.0863 16.6536 91.0328 16.6539V16.5586L91.7085 16.558Z" fill="#666666"/>
<path d="M92.7631 15.7859V16.5586H93.2264V16.7384H92.7631V18.2627C92.762 18.3271 92.767 18.3914 92.7782 18.4544C92.7854 18.4967 92.7994 18.5369 92.8193 18.573C92.8342 18.6003 92.8557 18.6216 92.881 18.6342C92.9062 18.6455 92.933 18.651 92.96 18.6505C93.0093 18.6491 93.057 18.6302 93.0971 18.5963C93.144 18.558 93.1801 18.5038 93.2008 18.4409H93.2858C93.2624 18.5189 93.2308 18.5932 93.1917 18.6618C93.1581 18.721 93.1177 18.7742 93.0715 18.8199C93.0304 18.8601 92.9841 18.8921 92.9344 18.9147C92.8874 18.9357 92.8376 18.9465 92.7873 18.9467C92.7532 18.9467 92.7192 18.9412 92.6863 18.9304C92.6528 18.9197 92.6208 18.9033 92.5913 18.8817C92.5612 18.8604 92.5339 18.8341 92.51 18.8037C92.4849 18.7722 92.4649 18.7355 92.451 18.6954C92.4152 18.5738 92.3997 18.445 92.4054 18.3163V16.7379H92.0896V16.6528C92.1799 16.6074 92.2624 16.5428 92.3332 16.4622C92.4192 16.3683 92.4939 16.2608 92.5552 16.1427C92.5712 16.1103 92.5913 16.0648 92.6146 16.0052C92.6379 15.9456 92.6653 15.8731 92.6937 15.7886L92.7631 15.7859Z" fill="#666666"/>
<path d="M93.7532 17.4434C93.751 17.6028 93.7706 17.7615 93.8112 17.9135C93.845 18.0418 93.8989 18.1614 93.9702 18.266C94.0313 18.3591 94.1094 18.4346 94.1986 18.4869C94.2839 18.5367 94.3777 18.5626 94.4728 18.5627C94.5945 18.5658 94.7138 18.5215 94.8123 18.4366C94.9248 18.3213 95.0081 18.1714 95.053 18.0033L95.1207 18.0575C95.1041 18.1749 95.0733 18.2889 95.0293 18.3959C94.985 18.5051 94.9271 18.6057 94.8575 18.6943C94.7869 18.7816 94.7037 18.8532 94.6117 18.9055C94.5174 18.96 94.4137 18.9876 94.3088 18.9862C94.1928 18.9872 94.0781 18.9578 93.9729 18.9001C93.8682 18.8427 93.7748 18.7599 93.6988 18.6569C93.6166 18.5443 93.5532 18.4142 93.5119 18.2736C93.464 18.1118 93.4406 17.9413 93.4429 17.77C93.4401 17.586 93.4639 17.4028 93.5133 17.2284C93.5552 17.0812 93.6207 16.945 93.7061 16.8272C93.7864 16.719 93.8864 16.6338 93.9985 16.5781C94.1122 16.5208 94.2346 16.4919 94.3581 16.4931C94.4624 16.4919 94.5659 16.5149 94.6628 16.5608C94.754 16.605 94.8365 16.6712 94.905 16.7552C94.9742 16.8421 95.028 16.9447 95.0631 17.0568C95.1033 17.1825 95.123 17.3161 95.1211 17.4505L93.7532 17.4434ZM93.7532 17.2945H94.6702C94.6714 17.1861 94.6559 17.0784 94.6245 16.9766C94.5907 16.884 94.5344 16.8054 94.4627 16.7508C94.3968 16.6978 94.319 16.6692 94.2393 16.6685C94.1802 16.6685 94.1217 16.6831 94.0675 16.7113C94.0115 16.7399 93.9609 16.7817 93.919 16.8342C93.8722 16.8913 93.8342 16.9577 93.8066 17.0303C93.7756 17.1141 93.7572 17.2037 93.7523 17.2951" fill="#666666"/>
<path d="M1.12984 0.494812H9.14836L2.098 9.734L8.83128 19.5353H1.12984V0.494812Z" fill="#0057A6"/>
<path d="M1.12984 0.494812H9.14836L2.098 9.734L8.83128 19.5353H1.12984V0.494812Z" stroke="#EDEEEF" stroke-width="0.7" stroke-miterlimit="10"/>
<path d="M14.3186 3.36972C14.3186 3.96948 14.1685 4.55577 13.8874 5.05445C13.6063 5.55313 13.2067 5.9418 12.7391 6.17132C12.2716 6.40084 11.7572 6.46089 11.2608 6.34389C10.7645 6.22688 10.3086 5.93807 9.95077 5.51397C9.59294 5.08988 9.34926 4.54955 9.25053 3.96132C9.15181 3.37308 9.20248 2.76336 9.39613 2.20925C9.58979 1.65515 9.91774 1.18155 10.3385 0.848338C10.7593 0.51513 11.2539 0.33728 11.76 0.33728C12.096 0.33728 12.4287 0.415717 12.7391 0.568111C13.0496 0.720505 13.3316 0.943873 13.5692 1.22546C13.8068 1.50705 13.9953 1.84134 14.1238 2.20925C14.2524 2.57717 14.3186 2.97149 14.3186 3.36972Z" fill="#D9001A"/>
<path d="M11.7609 6.40107C13.1737 6.40107 14.319 5.04364 14.319 3.36918C14.319 1.69471 13.1737 0.33728 11.7609 0.33728C10.348 0.33728 9.20271 1.69471 9.20271 3.36918C9.20271 5.04364 10.348 6.40107 11.7609 6.40107Z" stroke="#EDEEEF" stroke-width="0.7" stroke-miterlimit="10"/>
<path d="M14.2126 8.78857H9.65324V19.5337H14.2126V8.78857Z" fill="#0057A6"/>
<path d="M14.2126 8.78857H9.65324V19.5337H14.2126V8.78857Z" stroke="#EDEEEF" stroke-width="0.7" stroke-miterlimit="10"/>
<path d="M23.3263 7.50138C22.5404 3.56084 18.809 0.539777 15.2991 0.348083V7.50138H23.3263Z" fill="#0057A6"/>
<path d="M23.3263 7.50138C22.5404 3.56084 18.809 0.539777 15.2991 0.348083V7.50138H23.3263Z" stroke="#EDEEEF" stroke-width="0.7" stroke-miterlimit="10"/>
<path d="M15.2991 12.3386V19.5233C18.8172 19.3311 22.5605 16.2922 23.3327 12.3386H15.2991Z" fill="#0057A6"/>
<path d="M15.2991 12.3386V19.5233C18.8172 19.3311 22.5605 16.2922 23.3327 12.3386H15.2991Z" stroke="#EDEEEF" stroke-width="0.7" stroke-miterlimit="10"/>
<path d="M23.3327 7.97196C23.3263 7.94705 15.2562 7.8772 15.2991 7.80085L23.3327 7.65735V7.97196Z" fill="#76B984"/>
<path d="M23.3327 8.60008L15.6568 8.45658V8.42896L23.3327 8.28546V8.60008Z" fill="#76B984"/>
<path d="M23.3345 9.22819L16.0164 9.08469V9.05707L23.3345 8.91357V9.22819Z" fill="#76B984"/>
<path d="M23.3345 11.0309L16.0164 10.8874V10.8609L23.3345 10.7163V11.0309Z" fill="#76B984"/>
<path d="M23.3327 9.85636L16.3728 9.71286V9.68525L23.3327 9.54175V9.85636Z" fill="#76B984"/>
<path d="M23.3327 10.4596L16.3728 10.3161V10.2885L23.3327 10.145V10.4596Z" fill="#76B984"/>
<path d="M23.3327 11.5849L15.6568 11.4414V11.4138L23.3327 11.2703V11.5849Z" fill="#76B984"/>
<path d="M23.3327 12.1816C23.3263 12.1567 15.2562 12.0869 15.2991 12.0105L23.3327 11.867V12.1816Z" fill="#76B984"/>
<path d="M31.6281 11.4279V8.44363H36.0417V0.573914H34.4645V2.8829H27.1756V0.573914H25.6638V8.44363H30.0902V11.4279H25.4513V13.4071H36.2669V11.4279H31.6281ZM27.1756 4.50796H34.4654V6.93553H27.1756V4.50796Z" fill="#666666"/>
<path d="M49.8655 0.620483V3.61501H48.6113V5.44856H49.8655V8.31367L40.6819 8.28551V13.6735L51.4034 13.7044V0.620483H49.8655ZM49.8308 11.9921H42.2495V9.7113H49.8308V11.9921Z" fill="#666666"/>
<path d="M48.1289 1.51718H45.3244V0.152588H43.6275V1.51718H40.6815V3.00795H41.6994C41.5029 3.54355 41.4218 4.12871 41.4636 4.71067C41.5055 5.29264 41.6688 5.85313 41.939 6.34161C42.2092 6.83009 42.5777 7.2312 43.0113 7.5088C43.4449 7.7864 43.9299 7.93174 44.4228 7.93174C44.9156 7.93174 45.4006 7.7864 45.8342 7.5088C46.2678 7.2312 46.6363 6.83009 46.9065 6.34161C47.1767 5.85313 47.34 5.29264 47.3819 4.71067C47.4237 4.12871 47.3427 3.54355 47.1461 3.00795H48.1289V1.51718ZM44.423 6.42215C44.1151 6.42269 43.814 6.31493 43.5578 6.11254C43.3016 5.91014 43.1019 5.6222 42.9838 5.28518C42.8658 4.94815 42.8348 4.57719 42.8948 4.21927C42.9547 3.86135 43.1029 3.53257 43.3206 3.27454C43.5383 3.01651 43.8158 2.84085 44.1178 2.76979C44.4198 2.69873 44.7327 2.73547 45.0171 2.87536C45.3015 3.01526 45.5444 3.252 45.7152 3.55563C45.886 3.85926 45.9769 4.21612 45.9764 4.58103C45.9764 5.06932 45.8128 5.53762 45.5214 5.8829C45.2301 6.22818 44.835 6.42215 44.423 6.42215Z" fill="#666666"/>
<path d="M60.7347 0.766113V5.64617C60.7346 6.7627 60.3604 7.83347 59.6943 8.62308C59.0282 9.41269 58.1249 9.85649 57.1828 9.85692H55.8176V8.12898H57.154C57.7024 8.12883 58.2283 7.87057 58.6161 7.41098C59.0039 6.95138 59.2218 6.32808 59.2219 5.67812V2.2623H55.8176V0.766113H60.7347Z" fill="#666666"/>
<path d="M63.5446 0.766663H61.9807V13.5013H63.5446V0.766663Z" fill="#666666"/>
<path d="M66.3011 0.766663H64.7371V13.5013H66.3011V0.766663Z" fill="#666666"/>
<path d="M65.0816 5.14423H63.2261V6.74709H65.0816V5.14423Z" fill="#666666"/>
<path d="M75.5793 0.767212V2.25365H72.0283V0.767212H70.5863V6.41729H77.0372V0.767212H75.5793ZM75.5793 4.8767H72.0283V3.82402H75.5802L75.5793 4.8767Z" fill="#666666"/>
<path d="M81.8342 2.50543V4.0758H80.7212V11.0824H72.1859V11.7722H80.7212V13.5002H70.5867V9.85692H79.1558V9.13455H70.5867V7.53278H79.2637V0.766113H80.7216V2.50543H81.8342Z" fill="#666666"/>
<path d="M90.9561 3.73199C90.956 3.14164 90.8317 2.56064 90.5943 2.04164C90.3569 1.52264 90.014 1.08204 89.5967 0.759779C89.1793 0.437515 88.7007 0.243768 88.2043 0.196097C87.7078 0.148425 87.2091 0.248335 86.7534 0.486773C86.2978 0.725211 85.8995 1.09464 85.5947 1.56158C85.2899 2.02852 85.0883 2.57822 85.008 3.16086C84.9278 3.7435 84.9715 4.34066 85.1351 4.89823C85.2988 5.4558 85.5773 5.95616 85.9453 6.35396H84.9685V8.06675H87.6404V10.6421H88.9398V8.0662H91.0955V6.35396H89.9802C90.288 6.02159 90.5338 5.61667 90.7018 5.16515C90.8699 4.71364 90.9565 4.22548 90.9561 3.73199ZM88.0046 1.73491C88.43 1.74543 88.8344 1.95571 89.1291 2.31953C89.4237 2.68335 89.5844 3.17094 89.5758 3.67513C89.5847 3.92615 89.5506 4.17671 89.4756 4.41172C89.4007 4.64674 89.2864 4.86136 89.1397 5.04269C88.9929 5.22402 88.8168 5.3683 88.6218 5.46687C88.4268 5.56543 88.217 5.61624 88.005 5.61624C87.793 5.61624 87.5832 5.56543 87.3882 5.46687C87.1932 5.3683 87.0171 5.22402 86.8703 5.04269C86.7236 4.86136 86.6093 4.64674 86.5344 4.41172C86.4594 4.17671 86.4254 3.92615 86.4342 3.67513C86.4256 3.17113 86.5862 2.6837 86.8806 2.31991C87.1751 1.95612 87.5793 1.74571 88.0046 1.73491Z" fill="#666666"/>
<path d="M94.9297 0.557617V13.4996H84.9694V9.91972H86.5146V11.9617H93.5257V10.093H91.2992V8.28546H93.5257V0.557617H94.9297Z" fill="#666666"/>
</g>
</svg>
