<svg width="171" height="171" viewBox="0 0 171 171" fill="none" xmlns="http://www.w3.org/2000/svg">
<g clip-path="url(#clip0_407_10207)">
<path d="M100.958 20.7278C103.918 12.7721 99.8685 3.9229 91.9128 0.962617C83.9571 -1.99767 75.1079 2.05192 72.1477 10.0076C69.1874 17.9633 73.237 26.8125 81.1927 29.7728C89.1484 32.7331 97.9976 28.6835 100.958 20.7278Z" fill="#694FB6"/>
<path d="M47.1546 12.07C38.9146 12.07 32.2046 18.78 32.2046 27.02C32.2046 35.26 38.9146 41.97 47.1546 41.97C55.3946 41.97 62.1046 35.26 62.1046 27.02C62.1046 18.78 55.3946 12.07 47.1546 12.07Z" fill="#694FB6" fill-opacity="0.9"/>
<path d="M20.9348 42.68C12.9248 42.68 6.40479 49.2 6.40479 57.21C6.40479 65.22 12.9248 71.74 20.9348 71.74C28.9448 71.74 35.4648 65.22 35.4648 57.21C35.4648 49.2 28.9448 42.68 20.9348 42.68Z" fill="#694FB6" fill-opacity="0.9"/>
<path d="M14.9948 84.28C7.21477 84.28 0.884766 90.61 0.884766 98.39C0.884766 106.17 7.21477 112.5 14.9948 112.5C22.7748 112.5 29.1048 106.17 29.1048 98.39C29.1048 90.61 22.7748 84.28 14.9948 84.28Z" fill="#694FB6" fill-opacity="0.8"/>
<path d="M31.9546 121.47C24.4046 121.47 18.2646 127.61 18.2646 135.16C18.2646 142.71 24.4046 148.85 31.9546 148.85C39.5047 148.85 45.6446 142.71 45.6446 135.16C45.6446 127.61 39.5047 121.47 31.9546 121.47Z" fill="#694FB6" fill-opacity="0.8"/>
<path d="M65.6548 143.71C58.3348 143.71 52.3848 149.66 52.3848 156.98C52.3848 164.3 58.3348 170.25 65.6548 170.25C72.9748 170.25 78.9248 164.3 78.9248 156.98C78.9248 149.66 72.9748 143.71 65.6548 143.71Z" fill="#694FB6" fill-opacity="0.7"/>
<path d="M107.435 144.13C100.345 144.13 94.585 149.9 94.585 156.98C94.585 164.06 100.355 169.83 107.435 169.83C114.515 169.83 120.285 164.06 120.285 156.98C120.285 149.9 114.515 144.13 107.435 144.13Z" fill="#694FB6" fill-opacity="0.6"/>
<path d="M141.145 122.73C134.285 122.73 128.715 128.31 128.715 135.16C128.715 142.01 134.295 147.59 141.145 147.59C147.995 147.59 153.575 142.01 153.575 135.16C153.575 128.31 147.995 122.73 141.145 122.73Z" fill="#694FB6" fill-opacity="0.5"/>
<path d="M158.105 110.4C164.738 110.4 170.115 105.023 170.115 98.39C170.115 91.7571 164.738 86.38 158.105 86.38C151.472 86.38 146.095 91.7571 146.095 98.39C146.095 105.023 151.472 110.4 158.105 110.4Z" fill="#694FB6" fill-opacity="0.4"/>
<path d="M152.165 45.61C145.775 45.61 140.565 50.81 140.565 57.21C140.565 63.61 145.765 68.81 152.165 68.81C158.565 68.81 163.765 63.61 163.765 57.21C163.765 50.81 158.565 45.61 152.165 45.61Z" fill="#694FB6" fill-opacity="0.3"/>
<path d="M125.935 15.84C119.775 15.84 114.755 20.85 114.755 27.02C114.755 33.19 119.765 38.2 125.935 38.2C132.105 38.2 137.115 33.19 137.115 27.02C137.115 20.85 132.105 15.84 125.935 15.84Z" fill="#694FB6" fill-opacity="0.2"/>
</g>
<defs>
<clipPath id="clip0_407_10207">
<rect width="169.23" height="170.25" fill="white" transform="translate(0.884766)"/>
</clipPath>
</defs>
</svg>
