<svg width="24" height="24" viewBox="0 0 24 24" fill="none" xmlns="http://www.w3.org/2000/svg">
<g clip-path="url(#clip0_484_53)">
<g clip-path="url(#clip1_484_53)">
<path d="M16.9394 21.9618C14.2219 24.6794 9.77563 24.6794 7.05808 21.9618L2.03816 16.9419C-0.679388 14.2244 -0.679388 9.77815 2.03816 7.0606L7.05808 2.03816C9.77563 -0.679388 14.2219 -0.679388 16.9394 2.03816L21.9593 7.05808C24.6769 9.77563 24.6769 14.2219 21.9593 16.9394L16.9394 21.9593V21.9618Z" fill="#F1291C"/>
<path d="M9.02074 19.3751C8.62066 19.3751 8.29606 19.0631 8.28096 18.663C8.27341 18.4642 8.34135 18.2755 8.47723 18.1296C8.61059 17.9836 8.79428 17.8981 8.99306 17.8905C9.40069 17.8704 9.74794 18.1925 9.76555 18.6026C9.78316 19.0128 9.4636 19.3575 9.05345 19.3751C9.05345 19.3751 9.03332 19.3751 9.02074 19.3751Z" fill="white"/>
<path d="M11.7232 5.66884C11.3156 5.66884 10.9885 5.79717 10.7268 6.05886C10.1581 6.62501 9.85867 7.79255 9.88635 9.3476C9.91906 11.265 10.3745 15.0243 11.8817 16.9618C12.1258 17.2763 12.39 17.5254 12.6618 17.7066C12.926 17.8827 13.2254 18.0538 13.6909 18.0538C13.8167 18.0538 13.9526 18.0412 14.0935 18.0161C14.9591 17.8097 16.0411 16.846 16.8463 15.5653C16.9696 15.369 17.181 15.2532 17.4099 15.2532C17.5358 15.2532 17.6565 15.2885 17.7647 15.3564C17.9157 15.452 18.0189 15.598 18.0591 15.7716C18.0994 15.9452 18.0692 16.1239 17.9736 16.2748C16.9545 17.8953 15.6108 19.0326 14.3779 19.317C14.3728 19.317 14.3602 19.322 14.3477 19.3245C14.1212 19.3648 13.8998 19.3874 13.6884 19.3874C12.8933 19.3874 12.3321 19.0855 11.9321 18.8213C11.537 18.5596 11.1671 18.2098 10.835 17.7846C8.71378 15.0595 8.56783 9.94898 8.55777 9.37527C8.53512 8.0165 8.73139 6.17209 9.79325 5.11778C10.3116 4.60446 10.9608 4.34277 11.7232 4.34277H11.8465C12.6114 4.34277 13.2606 4.60446 13.779 5.11778C14.8408 6.17209 15.0371 8.01398 15.0145 9.37527C14.9893 10.7919 14.7301 13.5372 13.2606 15.9955C13.1399 16.1968 12.9209 16.3201 12.6895 16.3201C12.5687 16.3201 12.4504 16.2874 12.3498 16.227C12.0352 16.0383 11.9321 15.6307 12.1183 15.3136C13.1474 13.5925 13.6431 11.6978 13.6834 9.35263C13.7111 7.79759 13.4116 6.63005 12.8429 6.06389C12.5787 5.8022 12.2541 5.67387 11.8465 5.67387H11.7308L11.7232 5.66884Z" fill="white"/>
</g>
</g>
<defs>
<clipPath id="clip0_484_53">
<rect width="24" height="24" fill="white"/>
</clipPath>
<clipPath id="clip1_484_53">
<rect width="24" height="24" fill="white"/>
</clipPath>
</defs>
</svg>
