<svg width="133" height="24" viewBox="0 0 133 24" fill="none" xmlns="http://www.w3.org/2000/svg">
<g clip-path="url(#clip0_403_94)">
<path d="M1.27045 6.62518C0.763229 7.63881 0.391457 8.74127 0.18447 9.91446C-0.328776 12.8231 0.252796 15.6715 1.63257 18.038L9.58126 8.70711C9.78262 8.47078 9.65119 8.10464 9.34534 8.05078L1.27045 6.62518Z" fill="white"/>
<path d="M11.3726 0.015686C7.24493 0.227898 3.52801 2.57267 1.5329 6.13003L13.6848 8.27465C13.9887 8.32811 14.2371 8.03391 14.1334 7.74372L11.3726 0.015686Z" fill="white"/>
<path d="M22.7295 17.3744C23.2368 16.3608 23.6085 15.2583 23.8155 14.0852C24.3284 11.1785 23.748 8.33213 22.3702 5.96686L14.4191 15.2925C14.2174 15.5288 14.3492 15.895 14.6551 15.9492L22.7291 17.3744H22.7295Z" fill="white"/>
<path d="M22.0772 5.48934C20.3293 2.78565 17.5058 0.78813 14.0855 0.184453C13.3621 0.0566433 12.6426 -0.00284026 11.9337 -2.68467e-05L16.3101 12.2532L22.0772 5.48894V5.48934Z" fill="white"/>
<path d="M1.92639 18.5155C3.67432 21.2163 6.49658 23.2118 9.91487 23.8151C10.6849 23.951 11.4506 24.0092 12.2046 23.9972L7.93182 12.3895C7.82571 12.1009 7.44791 12.0338 7.24856 12.2677L1.92639 18.5155Z" fill="white"/>
<path d="M12.7645 23.9755C16.8375 23.7187 20.4945 21.3876 22.4671 17.8696L10.3747 15.7354C10.0692 15.6816 9.82042 15.979 9.92773 16.27L12.7641 23.9755H12.7645Z" fill="white"/>
</g>
<path d="M37.615 16.3446C38.385 16.3446 39.065 16.1696 39.655 15.8196C40.255 15.4596 40.715 14.9596 41.035 14.3196C41.365 13.6696 41.53 12.9246 41.53 12.0846C41.53 11.2446 41.365 10.5046 41.035 9.86457C40.715 9.21457 40.255 8.71457 39.655 8.36457C39.065 8.00457 38.385 7.82457 37.615 7.82457C36.845 7.82457 36.165 8.00457 35.575 8.36457C34.985 8.71457 34.525 9.21457 34.195 9.86457C33.875 10.5046 33.715 11.2446 33.715 12.0846C33.715 12.9246 33.875 13.6696 34.195 14.3196C34.525 14.9596 34.985 15.4596 35.575 15.8196C36.165 16.1696 36.845 16.3446 37.615 16.3446ZM32.11 12.0846C32.11 10.9946 32.345 10.0196 32.815 9.15957C33.285 8.29957 33.935 7.62957 34.765 7.14957C35.605 6.66957 36.555 6.42957 37.615 6.42957C38.685 6.42957 39.635 6.66957 40.465 7.14957C41.305 7.62957 41.96 8.29957 42.43 9.15957C42.9 10.0196 43.135 10.9946 43.135 12.0846C43.135 13.1746 42.9 14.1496 42.43 15.0096C41.96 15.8696 41.305 16.5396 40.465 17.0196C39.635 17.4996 38.685 17.7396 37.615 17.7396C36.555 17.7396 35.605 17.4996 34.765 17.0196C33.935 16.5396 33.285 15.8696 32.815 15.0096C32.345 14.1496 32.11 13.1746 32.11 12.0846ZM50.0055 17.7396C48.9455 17.7396 48.0005 17.4996 47.1705 17.0196C46.3505 16.5396 45.7055 15.8696 45.2355 15.0096C44.7755 14.1496 44.5455 13.1746 44.5455 12.0846C44.5455 10.9846 44.7755 10.0096 45.2355 9.15957C45.7055 8.29957 46.3505 7.62957 47.1705 7.14957C48.0005 6.66957 48.9455 6.42957 50.0055 6.42957C50.7455 6.42957 51.4455 6.57457 52.1055 6.86457C52.7655 7.15457 53.3505 7.55957 53.8605 8.07957L52.8105 9.11457C52.4705 8.71457 52.0505 8.39957 51.5505 8.16957C51.0605 7.93957 50.5405 7.82457 49.9905 7.82457C49.2305 7.82457 48.5605 8.00457 47.9805 8.36457C47.4005 8.71457 46.9505 9.21457 46.6305 9.86457C46.3105 10.5046 46.1505 11.2446 46.1505 12.0846C46.1505 12.9246 46.3105 13.6696 46.6305 14.3196C46.9505 14.9596 47.4005 15.4596 47.9805 15.8196C48.5605 16.1696 49.2305 16.3446 49.9905 16.3446C50.5505 16.3446 51.0655 16.2296 51.5355 15.9996C52.0055 15.7696 52.4105 15.4646 52.7505 15.0846L53.8605 16.0896C52.7605 17.1996 51.4755 17.7496 50.0055 17.7396ZM59.8626 12.0696C60.4726 12.0696 60.9626 11.8846 61.3326 11.5146C61.7126 11.1346 61.9026 10.6296 61.9026 9.99957C61.9026 9.36957 61.7126 8.86957 61.3326 8.49957C60.9626 8.12957 60.4726 7.94457 59.8626 7.94457H57.4476V12.0696H59.8626ZM55.8576 6.54957H60.0576C60.7276 6.54957 61.3226 6.69457 61.8426 6.98457C62.3626 7.27457 62.7676 7.68457 63.0576 8.21457C63.3476 8.73457 63.4926 9.33457 63.4926 10.0146C63.4926 10.7446 63.2876 11.3946 62.8776 11.9646C62.4676 12.5246 61.8626 12.9496 61.0626 13.2396L64.0176 17.6196H62.0976L59.2926 13.4646H57.4476V17.6196H55.8576V6.54957ZM71.0036 14.4696C71.3236 15.0896 71.7036 15.5596 72.1436 15.8796C72.5936 16.1996 73.0686 16.3596 73.5686 16.3596C74.2586 16.3596 74.7936 16.2046 75.1736 15.8946C75.5536 15.5746 75.7436 15.1496 75.7436 14.6196C75.7436 14.2696 75.6386 13.9746 75.4286 13.7346C75.2286 13.4946 74.9736 13.3046 74.6636 13.1646C74.3636 13.0146 73.9436 12.8396 73.4036 12.6396C72.7136 12.3896 72.1536 12.1496 71.7236 11.9196C71.2936 11.6896 70.9286 11.3646 70.6286 10.9446C70.3286 10.5246 70.1786 9.98457 70.1786 9.32457C70.1786 8.73457 70.3286 8.21957 70.6286 7.77957C70.9286 7.33957 71.3436 7.00457 71.8736 6.77457C72.4036 6.54457 73.0086 6.42957 73.6886 6.42957C74.4586 6.42957 75.1486 6.64457 75.7586 7.07457C76.3786 7.49457 76.8386 8.12457 77.1386 8.96457L75.7136 9.47457C75.5236 8.92457 75.2536 8.51457 74.9036 8.24457C74.5536 7.96457 74.1586 7.81957 73.7186 7.80957C73.1286 7.80957 72.6536 7.94957 72.2936 8.22957C71.9436 8.49957 71.7686 8.86457 71.7686 9.32457C71.7686 9.67457 71.8686 9.96957 72.0686 10.2096C72.2786 10.4496 72.5386 10.6496 72.8486 10.8096C73.1686 10.9596 73.5936 11.1346 74.1236 11.3346C74.8136 11.6046 75.3686 11.8546 75.7886 12.0846C76.2086 12.3146 76.5686 12.6396 76.8686 13.0596C77.1686 13.4696 77.3186 13.9946 77.3186 14.6346C77.3186 15.2446 77.1686 15.7846 76.8686 16.2546C76.5686 16.7246 76.1336 17.0896 75.5636 17.3496C75.0036 17.6096 74.3436 17.7396 73.5836 17.7396C72.7736 17.7396 72.0386 17.5246 71.3786 17.0946C70.7186 16.6546 70.1536 16.0246 69.6836 15.2046L71.0036 14.4696ZM86.6363 7.94457H81.0713V11.2296H85.8563V12.6096H81.0713V16.2246H86.6363V17.6196H79.4813V6.54957H86.6363V7.94457ZM92.9095 12.0696C93.5195 12.0696 94.0095 11.8846 94.3795 11.5146C94.7595 11.1346 94.9495 10.6296 94.9495 9.99957C94.9495 9.36957 94.7595 8.86957 94.3795 8.49957C94.0095 8.12957 93.5195 7.94457 92.9095 7.94457H90.4945V12.0696H92.9095ZM88.9045 6.54957H93.1045C93.7745 6.54957 94.3695 6.69457 94.8895 6.98457C95.4095 7.27457 95.8145 7.68457 96.1045 8.21457C96.3945 8.73457 96.5395 9.33457 96.5395 10.0146C96.5395 10.7446 96.3345 11.3946 95.9245 11.9646C95.5145 12.5246 94.9095 12.9496 94.1095 13.2396L97.0645 17.6196H95.1445L92.3395 13.4646H90.4945V17.6196H88.9045V6.54957ZM103.701 17.6196H101.841L97.7458 6.54957H99.4408L102.756 15.4746L105.861 6.54957H107.556L103.701 17.6196ZM111.002 6.54957V17.6196H109.412V6.54957H111.002ZM118.443 17.7396C117.383 17.7396 116.438 17.4996 115.608 17.0196C114.788 16.5396 114.143 15.8696 113.673 15.0096C113.213 14.1496 112.983 13.1746 112.983 12.0846C112.983 10.9846 113.213 10.0096 113.673 9.15957C114.143 8.29957 114.788 7.62957 115.608 7.14957C116.438 6.66957 117.383 6.42957 118.443 6.42957C119.183 6.42957 119.883 6.57457 120.543 6.86457C121.203 7.15457 121.788 7.55957 122.298 8.07957L121.248 9.11457C120.908 8.71457 120.488 8.39957 119.988 8.16957C119.498 7.93957 118.978 7.82457 118.428 7.82457C117.668 7.82457 116.998 8.00457 116.418 8.36457C115.838 8.71457 115.388 9.21457 115.068 9.86457C114.748 10.5046 114.588 11.2446 114.588 12.0846C114.588 12.9246 114.748 13.6696 115.068 14.3196C115.388 14.9596 115.838 15.4596 116.418 15.8196C116.998 16.1696 117.668 16.3446 118.428 16.3446C118.988 16.3446 119.503 16.2296 119.973 15.9996C120.443 15.7696 120.848 15.4646 121.188 15.0846L122.298 16.0896C121.198 17.1996 119.913 17.7496 118.443 17.7396ZM131.27 7.94457H125.705V11.2296H130.49V12.6096H125.705V16.2246H131.27V17.6196H124.115V6.54957H131.27V7.94457Z" fill="white"/>
<defs>
<clipPath id="clip0_403_94">
<rect width="24" height="23.9992" fill="white"/>
</clipPath>
</defs>
</svg>
