<svg width="20" height="21" viewBox="0 0 20 21" fill="none" xmlns="http://www.w3.org/2000/svg">
<g clip-path="url(#clip0_409_10981)">
<rect width="20" height="20.0029" transform="translate(0 0.498535)" fill="white"/>
<path d="M11.8756 7.9989V9.24896C11.8756 9.50679 11.6646 9.71774 11.4068 9.71774H9.2192V11.9053C9.2192 12.1632 9.00825 12.3741 8.75043 12.3741H7.50037C7.24254 12.3741 7.03159 12.1632 7.03159 11.9053V9.71774H4.84399C4.58616 9.71774 4.37521 9.50679 4.37521 9.24896V7.9989C4.37521 7.74108 4.58616 7.53013 4.84399 7.53013H7.03159V5.34252C7.03159 5.0847 7.24254 4.87375 7.50037 4.87375H8.75043C9.00825 4.87375 9.2192 5.0847 9.2192 5.34252V7.53013H11.4068C11.6646 7.53013 11.8756 7.74108 11.8756 7.9989ZM19.7275 19.1205L18.622 20.2261C18.2548 20.5933 17.661 20.5933 17.2977 20.2261L13.3991 16.3313C13.2233 16.1555 13.1256 15.9173 13.1256 15.6672V15.0305C11.7467 16.1087 10.0122 16.7493 8.1254 16.7493C3.6369 16.7493 0 13.1124 0 8.62393C0 4.13543 3.6369 0.498535 8.1254 0.498535C12.6139 0.498535 16.2508 4.13543 16.2508 8.62393C16.2508 10.5107 15.6101 12.2452 14.532 13.6242H15.1687C15.4187 13.6242 15.657 13.7218 15.8328 13.8976L19.7275 17.7923C20.0908 18.1596 20.0908 18.7533 19.7275 19.1205ZM13.4382 8.62393C13.4382 5.68629 11.063 3.31117 8.1254 3.31117C5.18775 3.31117 2.81264 5.68629 2.81264 8.62393C2.81264 11.5616 5.18775 13.9367 8.1254 13.9367C11.063 13.9367 13.4382 11.5616 13.4382 8.62393Z" fill="#717171"/>
</g>
<defs>
<clipPath id="clip0_409_10981">
<rect width="20" height="20.0029" fill="white" transform="translate(0 0.498535)"/>
</clipPath>
</defs>
</svg>
