<svg width="50" height="24" viewBox="0 0 50 24" fill="none" xmlns="http://www.w3.org/2000/svg">
<g clip-path="url(#clip0_484_82)">
<path d="M1.89992 10.0706C1.86504 9.92654 1.8733 9.77418 1.89258 9.69524C1.94122 9.46762 2.09634 9.21338 2.54699 9.21338C2.96553 9.21338 3.21151 9.47313 3.21151 9.86229V10.3047H4.99486V9.80263C4.99394 8.24782 3.59241 8 2.58187 8C1.31159 8 0.274433 8.42129 0.0844409 9.58877C0.0321242 9.9091 0.0238637 10.1909 0.0991262 10.5525C0.408437 12.0137 2.94901 12.4368 3.31889 13.3611C3.38773 13.5327 3.36754 13.7539 3.33266 13.8888C3.27392 14.1293 3.11238 14.3716 2.63419 14.3716C2.1872 14.3716 1.92011 14.1119 1.92011 13.7209L1.91736 13.0334H0V13.5795C0 15.1775 1.25468 15.6584 2.59839 15.6584C3.9421 15.6584 4.9508 15.2179 5.12336 14.0219C5.20963 13.4051 5.14447 13.004 5.11601 12.8517C4.81405 11.3519 2.10368 10.9068 1.89992 10.0706ZM25.1459 10.0881C25.1138 9.94673 25.123 9.79712 25.1395 9.71819C25.1909 9.48965 25.3442 9.24 25.7875 9.24C26.2005 9.24 26.4419 9.49699 26.4419 9.8834V10.3203H28.2042V9.8219C28.2042 8.28178 26.8237 8.03947 25.8233 8.03947C24.564 8.03947 23.5361 8.45433 23.3479 9.61355C23.2983 9.92929 23.2855 10.2092 23.3653 10.5663C23.6719 12.0109 26.1868 12.4304 26.5521 13.3446C26.6163 13.518 26.598 13.7383 26.5649 13.8686C26.5098 14.1064 26.3501 14.3459 25.8756 14.3459C25.4305 14.3459 25.1634 14.0898 25.1634 13.7043V13.0187H23.2662V13.5639C23.2662 15.1435 24.5035 15.6208 25.8371 15.6208C27.1707 15.6208 28.1684 15.1848 28.3372 14.0017C28.418 13.3904 28.3574 12.993 28.3244 12.8425C28.0289 11.3602 25.3479 10.915 25.145 10.0872L25.1459 10.0881ZM41.3769 13.9825L39.6936 8.22762H37.0411V15.3014H38.796L38.6941 9.36207L40.5022 15.3014H43.0465V8.22762H41.2806L41.3779 13.9825H41.3769ZM7.65291 8.22762L6.32847 15.3757H8.2596L9.25729 8.75905L10.2311 15.3757H12.1485L10.8295 8.22762H7.65199H7.65291ZM18.4494 8.22762L17.5472 13.8154L16.6459 8.22762H13.7299L13.5757 15.3757H15.3618L15.4105 8.75905L16.6394 15.3757H18.4522L19.6821 8.75905L19.7307 15.3757H21.5214L21.3617 8.22762H18.4494ZM35.0595 8.22762H33.2513V13.5153C33.2541 13.6071 33.2513 13.7108 33.2357 13.787C33.1981 13.9641 33.0476 14.3064 32.5492 14.3064C32.0508 14.3064 31.9021 13.965 31.8672 13.787C31.8489 13.7108 31.8471 13.6071 31.8489 13.5153V8.22762H30.0417V13.351C30.0398 13.4831 30.0499 13.753 30.0573 13.8237C30.1821 15.1591 31.2339 15.5923 32.5483 15.5923C33.8626 15.5923 34.9163 15.1591 35.0439 13.8237C35.054 13.753 35.0668 13.4831 35.0595 13.351V8.22762ZM47.4714 11.3639V12.4065H48.2038V13.4409C48.2056 13.5336 48.201 13.6328 48.1854 13.7126C48.1561 13.9054 47.9734 14.2339 47.453 14.2339C46.9326 14.2339 46.7564 13.9054 46.7252 13.7126C46.7123 13.6328 46.7068 13.5327 46.7068 13.4409V10.1734C46.7068 10.0578 46.7151 9.93113 46.7389 9.83567C46.7747 9.66128 46.9289 9.31801 47.4493 9.31801C47.9964 9.31801 48.1322 9.67964 48.1634 9.83567C48.1836 9.93847 48.1854 10.111 48.1854 10.111V10.5075H49.9853V10.2735C49.9853 10.2735 49.9936 10.0284 49.9715 9.80079C49.8366 8.45984 48.7316 8.0358 47.4649 8.0358C46.1983 8.0358 45.1134 8.46351 44.9556 9.80079C44.9409 9.92287 44.9198 10.1431 44.9198 10.2735V13.2785C44.9198 13.4097 44.9244 13.5107 44.9482 13.7502C45.0657 15.0545 46.1956 15.5162 47.4594 15.5162C48.7233 15.5162 49.8531 15.0536 49.9734 13.7502C49.9945 13.5107 49.9972 13.4097 50 13.2785V11.3629H47.4714V11.3639Z" fill="#1428A0"/>
</g>
<defs>
<clipPath id="clip0_484_82">
<rect width="50" height="7.65842" fill="white" transform="translate(0 8)"/>
</clipPath>
</defs>
</svg>
