<svg width="47" height="60" viewBox="0 0 47 60" fill="none" xmlns="http://www.w3.org/2000/svg">
<g clip-path="url(#clip0_417_2258)">
<path d="M45.889 12.7397L33.9799 0.829245C33.4275 0.276863 32.7568 0 31.9773 0H4.80441C2.30995 0 0.280518 2.02943 0.280518 4.52389V55.4761C0.280518 57.9598 2.3207 60 4.80441 60H42.1957C44.6888 60 46.7196 57.9692 46.7196 55.4761V14.7423C46.7196 13.9628 46.4414 13.2908 45.8904 12.7397H45.889ZM42.943 55.4761C42.943 55.8847 42.6056 56.2234 42.1957 56.2234H4.80441C4.38508 56.2234 4.05715 55.8954 4.05715 55.4761V4.52389C4.05715 4.11397 4.39449 3.77663 4.80441 3.77663H31.3954V11.342C31.3954 13.534 33.1829 15.3229 35.3763 15.3229H42.943V55.4748V55.4761Z" fill="#666666"/>
<path fill-rule="evenodd" clip-rule="evenodd" d="M18.5562 30.6418L21.0682 33.5542L28.2155 26.7012C28.4924 26.4364 28.9346 26.4445 29.2007 26.7227L30.6374 28.2199C30.9035 28.4968 30.8941 28.9389 30.6173 29.2051L22.681 36.8148C22.4337 37.0513 22.1555 37.2274 21.8504 37.3416C21.5386 37.4585 21.2133 37.5096 20.88 37.4935C20.5467 37.4773 20.2295 37.3967 19.9352 37.2529C19.6435 37.1118 19.3841 36.9102 19.1597 36.6494L15.9341 32.9091C15.6841 32.6188 15.7164 32.178 16.0053 31.928L17.5751 30.5692C17.7203 30.4442 17.8896 30.3878 18.0818 30.4012C18.2726 30.4146 18.4326 30.4953 18.5589 30.6404L18.5562 30.6418ZM27.0718 18.7877C34.4329 20.7607 38.8022 28.3274 36.8292 35.6885C34.8576 43.0496 27.2895 47.4175 19.9285 45.4459C12.5674 43.4729 8.19806 35.9062 10.171 28.5465C12.144 21.1854 19.7107 16.8161 27.0718 18.7891V18.7877Z" fill="#3CA219"/>
</g>
<defs>
<clipPath id="clip0_417_2258">
<rect width="46.4391" height="60" fill="white" transform="translate(0.280518)"/>
</clipPath>
</defs>
</svg>
