<svg width="60" height="78" viewBox="0 0 60 78" fill="none" xmlns="http://www.w3.org/2000/svg">
<g clip-path="url(#clip0_409_11289)">
<path d="M58.9269 16.4599L43.5401 1.0714C42.8264 0.357711 41.9599 0 40.9527 0H5.84493C2.62206 0 0 2.62206 0 5.84493V71.676C0 74.885 2.63595 77.5209 5.84493 77.5209H54.1551C57.3762 77.5209 60 74.8971 60 71.676V19.0473C60 18.0401 59.6406 17.1719 58.9269 16.4599ZM55.1205 71.676C55.1205 72.2056 54.6847 72.6414 54.1551 72.6414H5.84493C5.30316 72.6414 4.87946 72.2178 4.87946 71.676V5.84493C4.87946 5.31531 5.31531 4.87946 5.84493 4.87946H40.2009V14.6557C40.2009 17.4879 42.5103 19.7991 45.3443 19.7991H55.1205V71.676Z" fill="black"/>
<path fill-rule="evenodd" clip-rule="evenodd" d="M15.4789 30.1954L19.3633 34.0816L23.2478 30.1954C23.5708 29.8724 24.1004 29.8724 24.4234 30.1954L25.8265 31.5984C26.1494 31.9231 26.1494 32.451 25.8265 32.774L21.942 36.6585L25.8265 40.5429C26.1494 40.8659 26.1512 41.3955 25.8265 41.7185L24.4234 43.1216C24.1004 43.4446 23.5708 43.4446 23.2478 43.1216L19.3633 39.2371L15.4789 43.1216C15.1559 43.4446 14.6263 43.4446 14.3033 43.1216L12.9002 41.7185C12.5772 41.3955 12.5772 40.8659 12.9002 40.5429L16.7847 36.6585L12.8985 32.774C12.5755 32.4493 12.5755 31.9214 12.8985 31.5984L14.3015 30.1954C14.6263 29.8706 15.1542 29.8724 15.4771 30.1954H15.4789Z" fill="#EF4343"/>
<path fill-rule="evenodd" clip-rule="evenodd" d="M36.7506 30.1954L40.6351 34.0816L44.5196 30.1954C44.8443 29.8724 45.3722 29.8724 45.6951 30.1954L47.0982 31.5984C47.4212 31.9231 47.4212 32.451 47.0982 32.774L43.2137 36.6585L47.0982 40.5429C47.4229 40.8659 47.4229 41.3955 47.0982 41.7185L45.6951 43.1216C45.3722 43.4446 44.8425 43.4446 44.5196 43.1216L40.6351 39.2371L36.7489 43.1216C36.4259 43.4446 35.8963 43.4446 35.5733 43.1216L34.1702 41.7185C33.8455 41.3955 33.8473 40.8659 34.1702 40.5429L38.0547 36.6585L34.1685 32.774C33.8455 32.4493 33.8455 31.9214 34.1685 31.5984L35.5716 30.1954C35.8963 29.8706 36.4242 29.8724 36.7472 30.1954H36.7506Z" fill="#EF4343"/>
<path d="M41.609 57.279C40.0948 53.1601 36.2832 50.4981 31.8952 50.4981C27.5072 50.4981 23.4682 53.3355 22.0929 57.4943C21.9453 57.7773 21.8706 58.0777 21.8706 58.3851C21.8706 59.4548 22.7406 60.3265 23.8102 60.3265C24.385 60.3265 24.9112 60.0834 25.2741 59.6597L25.3835 59.6892L25.8593 58.4789C26.856 55.9905 29.2245 54.3825 31.8935 54.3825C34.5624 54.3825 36.9309 55.9905 37.9485 58.5014C38.1308 59.4061 38.9348 60.0643 39.8569 60.0643C40.4959 60.0643 41.0794 59.7552 41.4423 59.2429H41.701L41.7253 58.649C41.7792 58.458 41.8035 58.2896 41.8035 58.1177C41.8035 57.8277 41.734 57.5325 41.6072 57.2807L41.609 57.279Z" fill="#EF4343"/>
</g>
<defs>
<clipPath id="clip0_409_11289">
<rect width="60" height="77.5209" fill="white"/>
</clipPath>
</defs>
</svg>
